<svg width="400" height="323" viewBox="0 0 400 323" fill="none" xmlns="http://www.w3.org/2000/svg">
<path d="M377.818 232.164C377.884 208.318 365.829 186.513 345.539 173.734C340.994 170.901 339.084 165.17 341.126 160.164C348.043 142.971 350.085 124.855 347.187 106.543C340.073 62.1429 302.525 26.9661 257.796 22.6843C228.086 19.9177 199.233 30.0618 178.022 50.8127C175.453 53.3815 171.632 54.4362 168.074 53.7107C161.486 52.3931 154.767 51.7349 148.048 51.7349C92.7134 51.7349 47.6555 96.7928 47.6555 152.127C47.6555 157.858 48.1823 163.721 49.3022 169.979C50.0267 173.865 48.5777 177.687 45.6786 180.321C28.749 195.142 20.3831 216.552 22.6228 238.883C25.851 271.294 52.7932 297.644 85.2034 300.213L311.745 300.344C348.043 299.159 377.687 268.527 377.818 232.164Z" fill="white"/>
<path d="M364.756 160.1C370.684 141.722 372.133 122.222 369.104 102.988C360.474 48.7068 314.428 5.69096 259.819 0.553188C225.564 -2.67499 192.1 8.32608 166.673 30.9213C160.547 29.9991 154.223 29.4723 148.03 29.4723C80.3773 29.4723 25.4383 84.5428 25.4383 152.064C25.4383 157.268 25.8337 162.472 26.5582 167.809C7.19122 187.242 -2.29458 213.526 0.471984 241.127C4.82003 284.274 40.6549 319.254 83.9346 322.481C84.1986 322.481 84.4615 322.481 84.7254 322.481L311.86 322.612C311.991 322.612 312.124 322.612 312.255 322.612C360.475 320.966 399.737 280.387 400 232.167C400.065 203.709 387.087 177.359 364.756 160.1ZM85.186 300.281C52.6444 297.712 25.8337 271.362 22.6055 238.952C20.432 216.621 28.7317 195.145 45.6613 180.389C48.5593 177.82 50.0093 173.934 49.2848 170.047C48.1649 163.723 47.6381 157.926 47.6381 152.195C47.6381 96.8604 92.6959 51.8025 148.03 51.8025C154.75 51.8025 161.403 52.527 168.057 53.7783C171.68 54.5028 175.369 53.3829 178.004 50.8803C199.215 30.1957 228.068 19.9854 257.778 22.752C302.507 26.9023 340.121 62.2105 347.169 106.61C350.067 125.055 348.025 143.038 341.108 160.232C339.066 165.172 340.977 170.969 345.521 173.802C365.81 186.581 377.931 208.385 377.8 232.232C377.669 268.595 348.025 299.226 311.728 300.609L85.186 300.281Z" fill="#194F82"/>
<path d="M333.591 192.512L333.525 192.446C319.889 183.882 314.289 166.821 320.35 151.867V151.801C325.752 138.429 327.333 124.331 325.094 109.97C319.561 75.4521 290.378 47.9832 255.596 44.755C253.093 44.4911 250.458 44.3596 247.955 44.3596C227.468 44.3596 208.101 52.3302 193.411 66.6256L193.345 66.6919C185.506 74.3995 174.373 77.6929 163.635 75.5194H163.569C158.431 74.4657 153.161 73.9379 147.957 73.9379C104.809 73.9379 69.7641 109.049 69.7641 152.13C69.7641 156.478 70.2257 161.023 71.0816 166.096C73.1899 177.557 69.1058 189.284 60.3445 196.99H60.2782C48.8818 207.069 43.2172 221.495 44.6662 236.647C46.7745 258.319 64.5601 275.842 86.1668 278.016L311.194 278.147C335.106 277.093 355.396 256.079 355.461 232.035C355.593 215.898 347.425 201.142 333.591 192.512Z" fill="#FFC10D"/>
<path d="M308.929 125.514C304.12 122.55 297.796 123.932 294.832 128.742L283.633 146.529C271.974 112.01 239.431 87.1763 201.027 87.1763C152.807 87.1763 113.678 126.372 113.678 174.526C113.678 222.679 152.873 261.875 201.027 261.875C206.692 261.875 211.237 257.329 211.237 251.664C211.237 246 206.691 241.454 201.027 241.454C164.203 241.454 134.165 211.481 134.165 174.592C134.165 137.702 164.137 107.729 201.027 107.729C230.604 107.729 255.768 127.096 264.464 153.842L243.186 140.535C238.378 137.571 232.054 138.953 229.09 143.763C226.125 148.572 227.508 154.896 232.318 157.86L272.633 183.222C277.837 186.515 284.03 184.803 286.73 179.993L312.092 139.678C315.186 134.867 313.737 128.61 308.929 125.514Z" fill="#194F82"/>
</svg>
