<svg width="400" height="400" viewBox="0 0 400 400" fill="none" xmlns="http://www.w3.org/2000/svg">
<g clip-path="url(#clip0_102_1305)">
<path d="M394.051 376.613H365.789V357.428C365.789 356.336 364.9 355.443 363.805 355.443C362.709 355.443 361.82 356.336 361.82 357.428V376.613H326.102V357.428C326.102 356.336 325.213 355.443 324.117 355.443C323.022 355.443 322.133 356.336 322.133 357.428V376.613H286.414V357.428C286.414 356.336 285.525 355.443 284.43 355.443C283.334 355.443 282.445 356.336 282.445 357.428V376.613H246.726V357.428C246.726 356.336 245.837 355.443 244.742 355.443C243.646 355.443 242.757 356.336 242.757 357.428V376.613H207.039V357.428C207.039 356.336 206.15 355.443 205.054 355.443C203.959 355.443 203.07 356.336 203.07 357.428V376.613H167.351V357.428C167.351 356.336 166.462 355.443 165.367 355.443C164.271 355.443 163.382 356.336 163.382 357.428V376.613H127.663V357.428C127.663 356.336 126.774 355.443 125.679 355.443C124.584 355.443 123.695 356.336 123.695 357.428V376.613H87.9756V357.428C87.9756 356.336 87.0866 355.443 85.9912 355.443C84.8959 355.443 84.0069 356.336 84.0069 357.428V376.613H11.9063V331.635H27.8449C28.9402 331.635 29.8292 330.746 29.8292 329.65C29.8292 328.555 28.9402 327.666 27.8449 327.666H11.9063V291.947H27.8449C28.9402 291.947 29.8292 291.058 29.8292 289.962C29.8292 288.867 28.9402 287.978 27.8449 287.978H11.9063V252.259H27.8449C28.9402 252.259 29.8292 251.37 29.8292 250.275C29.8292 249.179 28.9402 248.29 27.8449 248.29H11.9063V212.571H27.8449C28.9402 212.571 29.8292 211.682 29.8292 210.587C29.8292 209.492 28.9402 208.603 27.8449 208.603H11.9063V172.884H27.8449C28.9402 172.884 29.8292 171.995 29.8292 170.899C29.8292 169.804 28.9402 168.915 27.8449 168.915H11.9063V133.196H27.8449C28.9402 133.196 29.8292 132.307 29.8292 131.212C29.8292 130.116 28.9402 129.227 27.8449 129.227H11.9063V93.5082H27.8449C28.9402 93.5082 29.8292 92.6192 29.8292 91.5238C29.8292 90.4284 28.9402 89.5394 27.8449 89.5394H11.9063V53.8205H27.8449C28.9402 53.8205 29.8292 52.9315 29.8292 51.8361C29.8292 50.7407 28.9402 49.8517 27.8449 49.8517H11.9063V17.4388C11.9063 14.1486 9.23929 11.4856 5.95315 11.4856C2.66701 11.4856 0 14.1447 0 17.4388V382.566C0 385.852 2.66701 388.519 5.95315 388.519H394.047C397.333 388.519 400 385.852 400 382.566C400 379.28 397.337 376.613 394.051 376.613Z" fill="#339037"/>
<path d="M102.768 65.4727H62.0879V334.535H102.768V65.4727Z" fill="#339037"/>
<path d="M189.088 169.828H148.408V334.531H189.088V169.828Z" fill="#339037"/>
<path d="M274.42 113.272H233.74V334.531H274.42V113.272Z" fill="#339037"/>
<path d="M363.717 140.062H323.037V334.531H363.717V140.062Z" fill="#339037"/>
</g>
<defs>
<clipPath id="clip0_102_1305">
<rect width="400" height="400" fill="white"/>
</clipPath>
</defs>
</svg>
