<svg width="557" height="556" viewBox="0 0 557 556" fill="none" xmlns="http://www.w3.org/2000/svg">
<path d="M528.963 250.348C517.324 250.348 507.382 257.592 503.382 267.814H452.338V219.418H480.3C485.822 219.418 490.3 214.941 490.3 209.418C490.3 203.894 485.822 199.418 480.3 199.418H452.338V151.021H480.3C485.822 151.021 490.3 146.544 490.3 141.021C490.3 135.498 485.822 131.021 480.3 131.021H452.338V127.976C452.338 114.721 441.594 103.976 428.338 103.976H424.894V75.6144C424.894 70.0912 420.417 65.6144 414.894 65.6144C409.37 65.6144 404.894 70.0912 404.894 75.6144V103.976H356.497V53.0472C366.719 49.0472 373.964 39.1064 373.964 27.4664C373.964 12.2968 361.666 0 346.497 0C331.327 0 319.03 12.2976 319.03 27.4664C319.03 39.1064 326.274 49.048 336.497 53.0472V103.976H288.1V75.6144C288.1 70.0912 283.622 65.6144 278.1 65.6144C272.577 65.6144 268.1 70.0912 268.1 75.6144V103.976H219.703V53.0472C229.926 49.0472 237.17 39.1064 237.17 27.4664C237.17 12.2968 224.872 0 209.703 0C194.534 0 182.237 12.2976 182.237 27.4664C182.237 39.1064 189.481 49.048 199.703 53.0472V103.976H151.306V75.6144C151.306 70.0912 146.83 65.6144 141.306 65.6144C135.783 65.6144 131.306 70.0912 131.306 75.6144V103.976H127.862C114.606 103.976 103.862 114.721 103.862 127.976V131.021H75.9C70.3768 131.021 65.9 135.498 65.9 141.021C65.9 146.544 70.3768 151.021 75.9 151.021H103.862V199.418H75.9C70.3768 199.418 65.9 203.894 65.9 209.418C65.9 214.941 70.3768 219.418 75.9 219.418H103.862V267.814H53.0472C49.048 257.592 39.1064 250.348 27.4664 250.348C12.2968 250.348 0 262.646 0 277.814C0 292.984 12.2976 305.281 27.4664 305.281C39.1056 305.281 49.048 298.037 53.0472 287.814H103.862V336.211H75.9C70.3768 336.211 65.9 340.688 65.9 346.211C65.9 351.734 70.3768 356.211 75.9 356.211H103.862V404.608H75.9C70.3768 404.608 65.9 409.086 65.9 414.608C65.9 420.131 70.3768 424.608 75.9 424.608H103.862V428.454C103.862 441.709 114.606 452.454 127.862 452.454H131.306V480.015C131.306 485.538 135.783 490.015 141.306 490.015C146.83 490.015 151.306 485.538 151.306 480.015V452.454H199.703V502.582C189.481 506.582 182.237 516.523 182.237 528.163C182.237 543.333 194.534 555.63 209.703 555.63C224.873 555.63 237.17 543.332 237.17 528.163C237.17 516.523 229.926 506.582 219.703 502.582V452.454H268.1V480.015C268.1 485.538 272.577 490.015 278.1 490.015C283.623 490.015 288.1 485.538 288.1 480.015V452.454H336.497V502.582C326.274 506.582 319.03 516.523 319.03 528.163C319.03 543.333 331.328 555.63 346.497 555.63C361.666 555.63 373.964 543.332 373.964 528.163C373.964 516.523 366.72 506.582 356.497 502.582V452.454H404.894V480.015C404.894 485.538 409.37 490.015 414.894 490.015C420.417 490.015 424.894 485.538 424.894 480.015V452.454H428.338C441.594 452.454 452.338 441.709 452.338 428.454V424.608H480.3C485.822 424.608 490.3 420.131 490.3 414.608C490.3 409.086 485.822 404.608 480.3 404.608H452.338V356.211H480.3C485.822 356.211 490.3 351.734 490.3 346.211C490.3 340.688 485.822 336.211 480.3 336.211H452.338V287.814H503.382C507.382 298.037 517.323 305.281 528.963 305.281C544.133 305.281 556.43 292.983 556.43 277.814C556.43 262.645 544.133 250.348 528.963 250.348ZM261.315 155.08H368.485C374.007 155.08 378.485 159.557 378.485 165.08C378.485 170.603 374.007 175.08 368.485 175.08H261.315C255.792 175.08 251.315 170.603 251.315 165.08C251.315 159.557 255.793 155.08 261.315 155.08ZM326.043 251.934C322.138 248.028 322.138 241.697 326.043 237.791C329.949 233.886 336.28 233.886 340.185 237.791L373.938 271.543C377.842 275.449 377.842 281.78 373.938 285.686L340.185 319.438C336.28 323.343 329.948 323.343 326.043 319.438C322.138 315.533 322.138 309.202 326.043 305.296L352.725 278.614L326.043 251.934ZM187.715 155.08H220.752C226.275 155.08 230.752 159.557 230.752 165.08C230.752 170.603 226.275 175.08 220.752 175.08H187.715C182.192 175.08 177.715 170.603 177.715 165.08C177.715 159.557 182.193 155.08 187.715 155.08ZM139.167 130.264C144.69 130.264 149.167 134.742 149.167 140.264C149.167 145.787 144.69 150.264 139.167 150.264C133.644 150.264 129.167 145.787 129.167 140.264C129.167 134.742 133.644 130.264 139.167 130.264ZM139.167 406.165C144.69 406.165 149.167 410.642 149.167 416.165C149.167 421.688 144.69 426.165 139.167 426.165C133.644 426.165 129.167 421.688 129.167 416.165C129.167 410.642 133.644 406.165 139.167 406.165ZM167.798 322.367H145.81C140.286 322.367 135.81 317.89 135.81 312.367C135.81 306.844 140.286 302.367 145.81 302.367H167.798C173.322 302.367 177.798 306.844 177.798 312.367C177.798 317.89 173.322 322.367 167.798 322.367ZM220.752 401.35H187.715C182.192 401.35 177.715 396.873 177.715 391.35C177.715 385.826 182.192 381.35 187.715 381.35H220.752C226.275 381.35 230.752 385.826 230.752 391.35C230.752 396.872 226.275 401.35 220.752 401.35ZM230.158 305.296C234.063 309.201 234.063 315.533 230.158 319.438C226.252 323.343 219.921 323.343 216.016 319.438L182.263 285.686C178.358 281.781 178.358 275.449 182.263 271.543L216.016 237.791C219.921 233.886 226.253 233.886 230.158 237.791C234.063 241.696 234.063 248.028 230.158 251.934L203.477 278.614L230.158 305.296ZM251.816 326.369L285.391 224.594C287.122 219.349 292.776 216.5 298.021 218.23C303.266 219.96 306.114 225.614 304.385 230.859L270.81 332.634C269.079 337.879 263.425 340.728 258.18 338.998C252.935 337.269 250.086 331.614 251.816 326.369ZM368.486 401.35H261.315C255.792 401.35 251.315 396.873 251.315 391.35C251.315 385.826 255.792 381.35 261.315 381.35H368.485C374.007 381.35 378.485 385.826 378.485 391.35C378.486 396.872 374.008 401.35 368.486 401.35ZM378.402 312.367C378.402 306.844 382.879 302.367 388.402 302.367H410.391C415.914 302.367 420.391 306.844 420.391 312.367C420.391 317.89 415.914 322.367 410.391 322.367H388.402C382.879 322.367 378.402 317.89 378.402 312.367ZM417.034 426.165C411.51 426.165 407.034 421.688 407.034 416.165C407.034 410.642 411.51 406.165 417.034 406.165C422.557 406.165 427.034 410.642 427.034 416.165C427.034 421.688 422.557 426.165 417.034 426.165ZM417.034 150.264C411.51 150.264 407.034 145.787 407.034 140.264C407.034 134.742 411.51 130.264 417.034 130.264C422.557 130.264 427.034 134.742 427.034 140.264C427.034 145.787 422.557 150.264 417.034 150.264Z" fill="#3435CE"/>
</svg>
