<svg width="400" height="400" viewBox="0 0 400 400" fill="none" xmlns="http://www.w3.org/2000/svg">
<path fill-rule="evenodd" clip-rule="evenodd" d="M166.785 211.104C166.785 211.104 157.231 216.664 173.591 218.542C193.417 220.806 203.544 220.48 225.385 216.348C225.385 216.348 231.136 219.949 239.162 223.063C190.186 244.049 128.322 221.849 166.785 211.104ZM160.798 183.718C160.798 183.718 150.08 191.652 166.455 193.345C187.634 195.532 204.351 195.711 233.298 190.141C233.298 190.141 237.295 194.198 243.584 196.414C184.378 213.731 118.438 197.777 160.798 183.718Z" fill="#3174B9"/>
<path fill-rule="evenodd" clip-rule="evenodd" d="M211.245 137.257C223.319 151.155 208.081 163.654 208.081 163.654C208.081 163.654 238.723 147.839 224.649 128.027C211.509 109.56 201.43 100.386 255.988 68.748C255.988 68.748 170.346 90.1284 211.245 137.257Z" fill="#CA3132"/>
<path fill-rule="evenodd" clip-rule="evenodd" d="M276.018 231.362C276.018 231.362 283.09 237.193 268.228 241.702C239.966 250.262 150.579 252.844 125.749 242.043C116.83 238.158 133.564 232.773 138.829 231.636C144.32 230.449 147.453 230.665 147.453 230.665C137.528 223.675 83.2976 244.392 119.912 250.335C219.752 266.523 301.912 243.047 276.018 231.362ZM171.382 155.34C171.382 155.34 125.919 166.142 155.285 170.068C167.688 171.726 192.395 171.344 215.427 169.412C234.245 167.833 253.133 164.454 253.133 164.454C253.133 164.454 246.503 167.299 241.699 170.574C195.525 182.72 106.338 177.063 132.016 164.647C153.727 154.145 171.382 155.34 171.382 155.34ZM252.944 200.925C299.878 176.542 278.178 153.105 263.027 156.264C259.323 157.038 257.661 157.706 257.661 157.706C257.661 157.706 259.043 155.544 261.67 154.614C291.638 144.083 314.68 185.683 252.008 202.158C252.006 202.158 252.728 201.506 252.944 200.925Z" fill="#3174B9"/>
<path fill-rule="evenodd" clip-rule="evenodd" d="M224.649 17.6472C224.649 17.6472 250.636 43.6511 199.994 83.6249C159.381 115.703 190.734 133.987 199.981 154.886C176.27 133.497 158.878 114.665 170.545 97.1425C187.673 71.4209 235.134 58.9471 224.649 17.6472Z" fill="#CA3132"/>
<path fill-rule="evenodd" clip-rule="evenodd" d="M176 267.019C221.043 269.9 290.227 265.419 291.869 244.101C291.869 244.101 288.718 252.182 254.638 258.592C216.187 265.83 168.755 264.988 140.633 260.346C140.633 260.346 146.396 265.114 176 267.019Z" fill="#3174B9"/>
<path fill-rule="evenodd" clip-rule="evenodd" d="M289.786 305.248H288.417V304.48H292.112V305.248H290.743V309.083H289.786V305.248ZM297.161 305.439H297.145L295.783 309.081H295.159L293.806 305.439H293.789V309.081H292.88V304.478H294.215L295.468 307.734L296.721 304.478H298.043V309.081H297.163L297.161 305.439ZM168.617 348.463C164.37 352.145 159.879 354.216 155.847 354.216C150.103 354.216 146.986 350.765 146.986 345.243C146.986 339.264 150.323 334.89 163.679 334.89H168.615L168.617 348.463ZM180.342 361.69V320.743C180.342 310.278 174.374 303.372 159.987 303.372C151.593 303.372 144.234 305.445 138.252 308.087L139.974 315.34C144.687 313.609 150.779 312.005 156.76 312.005C165.048 312.005 168.615 315.34 168.615 322.244V327.421H164.473C144.34 327.421 135.255 335.232 135.255 346.975C135.255 357.094 141.242 362.846 152.512 362.846C159.757 362.846 165.169 359.856 170.222 355.479L171.141 361.69H180.342ZM219.473 361.69H204.854L187.25 304.414H200.021L210.947 339.611L213.379 350.186C218.89 334.89 222.802 319.361 224.759 304.414H237.177C233.852 323.273 227.863 343.979 219.473 361.69ZM275.58 348.463C271.319 352.145 266.829 354.216 262.805 354.216C257.061 354.216 253.948 350.765 253.948 345.243C253.948 339.264 257.287 334.89 270.635 334.89H275.58V348.463ZM287.308 361.69V320.743C287.308 310.278 281.322 303.372 266.949 303.372C258.547 303.372 251.19 305.445 245.208 308.087L246.93 315.34C251.643 313.609 257.748 312.005 263.73 312.005C272.006 312.005 275.578 315.34 275.578 322.244V327.421H271.436C251.3 327.421 242.221 335.232 242.221 346.975C242.221 357.094 248.196 362.846 259.468 362.846C266.719 362.846 272.122 359.856 277.188 355.479L278.111 361.69H287.308ZM122.399 371.423C119.058 376.306 113.655 380.172 107.747 382.353L101.957 375.534C106.458 373.224 110.314 369.495 112.109 366.025C113.655 362.933 114.3 358.957 114.3 349.441V284.042H126.761V348.538C126.761 361.267 125.745 366.411 122.399 371.423Z" fill="#CA3132"/>
</svg>
