<svg width="400" height="400" viewBox="0 0 400 400" fill="none" xmlns="http://www.w3.org/2000/svg">
<g clip-path="url(#clip0_102_1277)">
<path d="M78.9056 251.738H321.092C352.378 251.738 377.802 226.313 377.802 195.027C377.802 165.981 356.067 141.808 327.284 138.712C320.434 138.054 315.889 131.203 317.601 125.275C318.524 121.126 319.05 116.977 319.05 112.892C319.05 81.6062 293.626 56.1817 262.34 56.1817C258.19 56.1817 253.844 56.7085 249.496 57.6967C245.479 58.6188 241.329 57.3014 238.628 54.1399C220.91 33.9197 195.421 22.261 168.614 22.261C121.388 26.6736 75.4802 54.6005 76.4685 128.173C76.6 133.508 72.9117 138.25 67.6422 139.37C41.3619 144.64 22.3267 168.021 22.3267 194.895C22.1963 226.248 47.6197 251.738 78.9056 251.738Z" fill="white"/>
<path d="M324.847 160.843C305.087 158.735 291.519 139.898 295.867 120.533V120.467C296.393 117.899 296.722 115.461 296.722 112.958C296.722 93.9891 281.31 78.5769 262.341 78.5769C259.838 78.5769 257.335 78.906 254.569 79.499L235.139 83.9779L221.966 68.961C208.529 53.5488 189.034 44.6562 168.747 44.6562C147.407 44.6562 128.306 54.207 115.265 69.1576H145.695C151.951 69.1576 157.221 74.2295 157.089 80.4862C156.958 86.5454 152.084 91.3544 145.958 91.3544H102.422C102.356 91.3544 102.356 91.3544 102.29 91.3544C99.5242 98.9285 97.943 106.964 97.943 115.461C97.943 115.988 98.0092 116.713 98.0092 117.239H123.828C130.085 117.239 135.354 122.311 135.223 128.568C135.091 134.627 130.217 139.436 124.092 139.436H100.378C101.498 148.262 95.6353 156.495 86.8752 158.274L71.8583 161.304C55.3264 164.663 43.47 179.68 44.3268 196.805C45.2489 215.181 60.7935 229.474 79.2358 229.474H320.896C339.865 229.474 355.277 214.062 355.277 195.093C355.541 177.375 342.302 162.687 324.847 160.843Z" fill="#56ACE0"/>
<path d="M377.673 315.691H316.023V377.341H377.673V315.691Z" fill="#FFC10D"/>
<path d="M85.9545 315.692H24.3047V377.342H85.9545V315.692Z" fill="#FFC10D"/>
<path d="M388.869 293.496H304.891C298.766 293.496 293.76 298.435 293.76 304.627V341.512H271.827V273.934H321.029C364.5 273.934 399.935 238.565 399.935 195.028C399.935 158.473 375.236 127.45 340.92 118.69C341.051 116.78 341.184 114.804 341.184 112.96C341.184 69.4889 305.814 34.0542 262.277 34.0542C258.523 34.0542 254.703 34.3833 250.883 34.91C229.212 12.8437 199.637 0.263916 168.615 0.263916C105.055 0.263916 52.6269 49.0701 53.4827 120.402C21.9329 131.071 0 161.106 0 195.093C0 238.565 35.3695 273.934 78.9062 273.934H130.216V331.171H108.283V304.627C108.283 298.502 103.343 293.496 97.1518 293.496H13.1728C7.04741 293.496 2.04178 298.435 2.04178 304.627V388.54C2.04178 394.665 6.98119 399.671 13.1728 399.671H97.0856C103.211 399.671 108.217 394.731 108.217 388.54V353.433H141.281C147.407 353.433 152.412 348.494 152.412 342.302V273.934H249.629V352.644C249.629 358.769 254.569 363.775 260.76 363.775H293.825V388.606C293.825 394.731 298.765 399.737 304.956 399.737H388.869C394.994 399.737 400 394.797 400 388.606V304.627C399.934 298.502 394.994 293.496 388.869 293.496ZM85.9546 377.343H24.3048V315.693H85.9546V377.343ZM78.9062 251.869C47.6202 251.869 22.1957 226.444 22.1957 195.158C22.1957 168.154 41.2962 144.837 67.5113 139.502C72.846 138.383 76.4691 133.706 76.3376 128.305C75.4156 54.8001 121.192 26.8071 168.549 22.3944C195.29 22.3944 220.846 34.0522 238.564 54.2733C241.265 57.3686 245.48 58.686 249.432 57.8302C253.779 56.7767 258.06 56.3151 262.275 56.3151C293.561 56.3151 318.986 81.7396 318.986 113.026C318.986 117.043 318.524 121.193 317.537 125.409C315.824 131.403 320.303 138.252 327.219 138.845C356.002 141.941 377.738 166.179 377.738 195.16C377.738 226.446 352.315 251.871 321.028 251.871L78.9062 251.869ZM377.737 377.343H316.087V315.693H377.737V377.343Z" fill="#194F82"/>
</g>
<defs>
<clipPath id="clip0_102_1277">
<rect width="400" height="400" fill="white"/>
</clipPath>
</defs>
</svg>
