<svg width="401" height="430" viewBox="0 0 401 430" fill="none" xmlns="http://www.w3.org/2000/svg">
<path d="M239.296 99.8972L235.823 104.714C231.526 100.291 221.158 95.5999 220.424 95.2597L223.2 87.9007L222.949 87.7216C222.519 87.4351 222.054 87.2203 221.552 87.0591C205.921 81.1683 191.561 81.0967 171.991 86.7547L181.248 111.482H181.069C168.105 115.69 158.436 127.382 157.38 128.689L144.56 119.539C137.487 128.886 132.474 145.788 132.474 158.77H116.126C116.252 170.515 118.382 190.892 132.241 207.794L144.452 198.466C155.607 214.867 178.92 226.774 198.437 224.75L198.15 190.623H198.401V191.089C203.289 192.521 213.495 189.423 217.953 185.914L227.21 198.304C236.933 194.992 244.471 176.138 245.259 174.114L259.977 179.146L259.995 179.164C263.934 165.502 264.077 151.017 260.407 137.283L260.389 137.301V137.14C260.407 137.176 260.407 137.248 260.407 137.283L265.671 135.35C261.767 120.578 252.314 107.883 239.296 99.8972ZM203.701 165.771C197.595 168.313 190.54 166.899 185.885 162.19C181.212 157.445 179.815 150.372 182.34 144.213C184.882 138.053 190.845 134.042 197.47 134.042H197.488C206.53 134.096 213.835 141.473 213.817 150.515C213.799 157.194 209.806 163.228 203.701 165.771ZM391.598 66.11L203.182 0.77375C200.281 -0.246849 197.13 -0.246849 194.247 0.77375L9.84073 66.1637C3.84248 68.2944 0.118188 74.2569 0.798587 80.5774L26.8149 328.422C27.2625 332.862 29.8588 336.819 33.7442 339.004L194.193 428.047C196.199 429.139 198.455 429.73 200.746 429.73C203.092 429.73 205.42 429.121 207.443 427.957L363.917 338.914C367.659 336.784 370.184 332.952 370.721 328.619L400.623 80.7744C401.375 74.3464 397.65 68.2586 391.598 66.11ZM285.993 231.286C285.993 231.286 283.719 233.864 286.906 239.254C290.112 244.607 291.025 244.607 285.08 250.212C289.664 254.187 289.664 257.481 282.806 260.597C282.967 271.662 285.205 281.564 271.15 282.405C257.094 283.229 239.279 273.775 234.641 299.218C230.004 324.626 231.203 315.118 229.825 321.492H130.54C142.895 287.437 153.459 249.854 130.54 231.393C107.639 212.951 70.1456 135.457 144.076 95.7611C152.402 91.3206 161.283 87.9723 170.469 85.8416L167.353 77.5335L168.32 77.1575C168.624 77.0322 200.084 64.9103 227.282 78.2676L228.177 78.7153L224.901 86.1639C242.43 90.103 255.501 96.5847 260.353 99.6107C271.347 106.45 285.94 117.337 287.336 127.65C288.715 137.946 275.447 132.771 275.447 132.771C283.684 152.771 284.131 167.113 280.461 182.333V182.351C276.808 197.534 297.381 213.237 296.933 224.285C295.591 229.406 285.993 231.286 285.993 231.286Z" fill="#3F8A4F"/>
</svg>
