<svg width="400" height="400" viewBox="0 0 400 400" fill="none" xmlns="http://www.w3.org/2000/svg">
<g clip-path="url(#clip0_102_1360)">
<path d="M200 400C310.457 400 400 310.457 400 200C400 89.543 310.457 0 200 0C89.543 0 0 89.543 0 200C0 310.457 89.543 400 200 400Z" fill="#FAD24D"/>
<path d="M199.999 340.638C278.65 340.638 342.409 335.612 342.409 329.411C342.409 323.21 278.65 318.184 199.999 318.184C121.349 318.184 57.5898 323.21 57.5898 329.411C57.5898 335.612 121.349 340.638 199.999 340.638Z" fill="#EDB937"/>
<path d="M51.5488 52.518H348.453C358.207 52.518 366.189 60.4992 366.189 70.2539V253.15H33.8145V70.2532C33.8145 60.4985 41.7957 52.5172 51.5504 52.5172L51.5488 52.518Z" fill="#666666"/>
<path d="M45.8535 241.107H354.142V70.2531C354.142 67.1445 351.557 64.5593 348.45 64.5593H51.5473C48.4402 64.5593 45.8559 67.1445 45.8559 70.2531V241.107H45.8535Z" fill="white"/>
<path d="M366.186 253.149V272.545C366.186 282.302 357.389 290.281 346.636 290.281H53.3645C42.6113 290.281 33.8145 282.302 33.8145 272.545V253.149H366.187H366.186Z" fill="white"/>
<path d="M200.001 277.046C203.373 277.046 206.107 274.312 206.107 270.94C206.107 267.567 203.373 264.834 200.001 264.834C196.628 264.834 193.895 267.567 193.895 270.94C193.895 274.312 196.628 277.046 200.001 277.046Z" fill="#B6B6B8"/>
<path d="M238.332 318.182L266.531 327.218H133.465L156.217 318.182V290.281H238.33V318.182H238.332Z" fill="#C2C2C4"/>
<path d="M156.219 318.182H238.333L266.532 327.218V331.109H200.001H133.467V327.218L156.219 318.182Z" fill="#ECF0F1"/>
<path d="M156.219 290.281H238.333V318.181L156.219 290.281Z" fill="#919191"/>
<path d="M91.0875 76.1719H59.2578V81.6531H91.0875V76.1719Z" fill="#20D0C2"/>
<path d="M151.228 76.1719H94.7676V81.6531H151.228V76.1719Z" fill="#FF5B62"/>
<path d="M202.02 76.1719H153.949V81.6531H202.02V76.1719Z" fill="#FAD24D"/>
<path d="M109.581 98.7211H92.6934V104.202H109.581V98.7211Z" fill="#FAD24D"/>
<path d="M141.488 98.7211H111.531V104.202H141.488V98.7211Z" fill="#FF5B62"/>
<path d="M168.433 98.7211H142.932V104.202H168.433V98.7211Z" fill="#20D0C2"/>
<path d="M88.7254 108.351H59.0566V113.832H88.7254V108.351Z" fill="#20D0C2"/>
<path d="M144.764 108.351H92.1484V113.832H144.764V108.351Z" fill="#FAD24D"/>
<path d="M120.397 119.859H90.7285V125.341H120.397V119.859Z" fill="#FF5B62"/>
<path d="M176.436 119.859H123.82V125.341H176.436V119.859Z" fill="#20D0C2"/>
<path d="M94.0125 130.862H64.3438V136.343H94.0125V130.862Z" fill="#FAD24D"/>
<path d="M119.166 130.862H97.9336V136.343H119.166V130.862Z" fill="#20D0C2"/>
<path d="M183.782 130.862H124.164V136.343H183.782V130.862Z" fill="#FF5B62"/>
<path d="M209.38 130.862H188.148V136.343H209.38V130.862Z" fill="#20D0C2"/>
<path d="M137.396 142.37H58.0039V147.851H137.396V142.37Z" fill="#20D0C2"/>
<path d="M162.089 142.37H140.857V147.852H162.089V142.37Z" fill="#FAD24D"/>
<path d="M194.784 142.37H165.115V147.852H194.784V142.37Z" fill="#FF5B62"/>
<path d="M96.2359 86.7914H94.043V93.3664H96.2359V86.7914Z" fill="white"/>
<path d="M153.125 108.351H150.932V114.926H153.125V108.351Z" fill="white"/>
<path d="M91.0875 158.589H59.2578V164.07H91.0875V158.589Z" fill="#20D0C2"/>
<path d="M151.228 158.589H94.7676V164.07H151.228V158.589Z" fill="#FF5B62"/>
<path d="M202.02 158.589H153.949V164.07H202.02V158.589Z" fill="#FAD24D"/>
<path d="M109.581 181.13H92.6934V186.612H109.581V181.13Z" fill="#FAD24D"/>
<path d="M141.488 181.13H111.531V186.612H141.488V181.13Z" fill="#FF5B62"/>
<path d="M168.433 181.13H142.932V186.612H168.433V181.13Z" fill="#20D0C2"/>
<path d="M88.7254 190.768H59.0566V196.249H88.7254V190.768Z" fill="#20D0C2"/>
<path d="M144.764 190.768H92.1484V196.249H144.764V190.768Z" fill="#FAD24D"/>
<path d="M96.2359 169.201H94.043V175.776H96.2359V169.201Z" fill="white"/>
<path d="M153.125 190.768H150.932V197.343H153.125V190.768Z" fill="white"/>
<path d="M341.855 76.1719H226.736V102.722H341.855V76.1719Z" fill="#DCE3DB"/>
<path d="M226.734 106.483H281.561V141.523H226.734V106.483Z" fill="#DCE3DB"/>
<path d="M287.029 106.483H341.856V141.523H287.029V106.483Z" fill="#DCE3DB"/>
<path d="M226.893 146.548H341.7V148.244H226.893V146.548ZM226.893 162.59H302.31V164.287H226.893V162.59ZM226.893 157.241H341.7V158.938H226.893V157.241ZM226.893 151.895H341.7V153.592H226.893V151.895Z" fill="#DCE3DB"/>
<path d="M226.6 168.455H260.813V202.377H226.6V168.455ZM307.782 168.455H341.996V202.377H307.782V168.455ZM267.191 168.455H301.404V202.377H267.191V168.455Z" fill="#DCE3DB"/>
<path d="M226.893 207.1H341.7V208.797H226.893V207.1ZM226.893 223.142H302.31V224.839H226.893V223.142ZM226.893 217.795H341.7V219.491H226.893V217.795ZM226.893 212.448H341.7V214.145H226.893V212.448Z" fill="#DCE3DB"/>
</g>
<defs>
<clipPath id="clip0_102_1360">
<rect width="400" height="400" fill="white"/>
</clipPath>
</defs>
</svg>
