<svg width="400" height="400" viewBox="0 0 400 400" fill="none" xmlns="http://www.w3.org/2000/svg">
<g clip-path="url(#clip0_126_837)">
<path fill-rule="evenodd" clip-rule="evenodd" d="M213.653 400H22.0769C9.8806 400 0 390.113 0 377.922V22.0768C0 9.88212 9.88215 0 22.0769 0H377.925C390.116 0 400 9.88212 400 22.0768V377.922C400 390.115 390.115 400 377.925 400H275.994V245.098H327.988L335.773 184.73H275.994V146.189C275.994 128.711 280.848 116.8 305.911 116.8L337.878 116.786V62.7925C332.349 62.0568 313.373 60.4131 291.296 60.4131C245.207 60.4131 213.653 88.5461 213.653 140.21V184.73H161.526V245.098H213.653V400Z" fill="#4460A0"/>
</g>
<defs>
<clipPath id="clip0_126_837">
<rect width="400" height="400" fill="white"/>
</clipPath>
</defs>
</svg>
