<svg width="400" height="400" viewBox="0 0 400 400" fill="none" xmlns="http://www.w3.org/2000/svg">
<path d="M314.286 0H85.7143C38.3756 0 0 38.3756 0 85.7143V314.286C0 361.624 38.3756 400 85.7143 400H314.286C361.624 400 400 361.624 400 314.286V85.7143C400 38.3756 361.624 0 314.286 0Z" fill="url(#paint0_radial_126_841)"/>
<path d="M314.286 0H85.7143C38.3756 0 0 38.3756 0 85.7143V314.286C0 361.624 38.3756 400 85.7143 400H314.286C361.624 400 400 361.624 400 314.286V85.7143C400 38.3756 361.624 0 314.286 0Z" fill="url(#paint1_radial_126_841)"/>
<path d="M314.286 0H85.7143C38.3756 0 0 38.3756 0 85.7143V314.286C0 361.624 38.3756 400 85.7143 400H314.286C361.624 400 400 361.624 400 314.286V85.7143C400 38.3756 361.624 0 314.286 0Z" fill="url(#paint2_radial_126_841)"/>
<path d="M300.002 121.429C300.002 133.263 290.407 142.857 278.573 142.857C266.739 142.857 257.145 133.263 257.145 121.429C257.145 109.594 266.739 100 278.573 100C290.407 100 300.002 109.594 300.002 121.429Z" fill="white"/>
<path fill-rule="evenodd" clip-rule="evenodd" d="M199.999 271.428C239.447 271.428 271.427 239.448 271.427 200C271.427 160.551 239.447 128.571 199.999 128.571C160.55 128.571 128.57 160.551 128.57 200C128.57 239.448 160.55 271.428 199.999 271.428ZM199.999 242.857C223.669 242.857 242.856 223.67 242.856 200C242.856 176.33 223.669 157.143 199.999 157.143C176.329 157.143 157.142 176.33 157.142 200C157.142 223.67 176.329 242.857 199.999 242.857Z" fill="white"/>
<path fill-rule="evenodd" clip-rule="evenodd" d="M57.1445 194.285C57.1445 146.281 57.1445 122.278 66.4868 103.943C74.7045 87.8152 87.8171 74.7026 103.945 66.4849C122.28 57.1426 146.283 57.1426 194.287 57.1426H205.716C253.72 57.1426 277.723 57.1426 296.057 66.4849C312.186 74.7026 325.299 87.8152 333.516 103.943C342.859 122.278 342.859 146.281 342.859 194.285V205.714C342.859 253.718 342.859 277.721 333.516 296.055C325.299 312.184 312.186 325.297 296.057 333.514C277.723 342.857 253.72 342.857 205.716 342.857H194.287C146.283 342.857 122.28 342.857 103.945 333.514C87.8171 325.297 74.7045 312.184 66.4868 296.055C57.1445 277.721 57.1445 253.718 57.1445 205.714V194.285ZM194.287 85.714H205.716C230.19 85.714 246.826 85.7363 259.686 86.7869C272.213 87.8103 278.619 89.6653 283.087 91.9422C293.839 97.4207 302.58 106.162 308.059 116.914C310.336 121.383 312.192 127.788 313.215 140.315C314.265 153.175 314.287 169.811 314.287 194.285V205.714C314.287 230.188 314.265 246.824 313.215 259.684C312.192 272.211 310.336 278.617 308.059 283.085C302.58 293.837 293.839 302.578 283.087 308.057C278.619 310.334 272.213 312.19 259.686 313.213C246.826 314.263 230.19 314.285 205.716 314.285H194.287C169.813 314.285 153.177 314.263 140.317 313.213C127.79 312.19 121.385 310.334 116.916 308.057C106.164 302.578 97.4227 293.837 91.9441 283.085C89.6673 278.617 87.8122 272.211 86.7888 259.684C85.7382 246.824 85.716 230.188 85.716 205.714V194.285C85.716 169.811 85.7382 153.175 86.7888 140.315C87.8122 127.788 89.6673 121.383 91.9441 116.914C97.4227 106.162 106.164 97.4207 116.916 91.9422C121.385 89.6653 127.79 87.8103 140.317 86.7869C153.177 85.7363 169.813 85.714 194.287 85.714Z" fill="white"/>
<defs>
<radialGradient id="paint0_radial_126_841" cx="0" cy="0" r="1" gradientUnits="userSpaceOnUse" gradientTransform="translate(142.857 300) rotate(-55.3758) scale(364.566)">
<stop stop-color="#B13589"/>
<stop offset="0.79309" stop-color="#C62F94"/>
<stop offset="1" stop-color="#8A3AC8"/>
</radialGradient>
<radialGradient id="paint1_radial_126_841" cx="0" cy="0" r="1" gradientUnits="userSpaceOnUse" gradientTransform="translate(128.571 414.286) rotate(-65.1363) scale(322.774)">
<stop stop-color="#E0E8B7"/>
<stop offset="0.444662" stop-color="#FB8A2E"/>
<stop offset="0.71474" stop-color="#E2425C"/>
<stop offset="1" stop-color="#E2425C" stop-opacity="0"/>
</radialGradient>
<radialGradient id="paint2_radial_126_841" cx="0" cy="0" r="1" gradientUnits="userSpaceOnUse" gradientTransform="translate(-21.4286 14.2857) rotate(-8.1301) scale(555.584 118.834)">
<stop offset="0.156701" stop-color="#406ADC"/>
<stop offset="0.467799" stop-color="#6A45BE"/>
<stop offset="1" stop-color="#6A45BE" stop-opacity="0"/>
</radialGradient>
</defs>
</svg>
