<svg width="400" height="353" viewBox="0 0 400 353" fill="none" xmlns="http://www.w3.org/2000/svg">
<path d="M338.156 94.2963L338.156 94.2994C338.274 97.712 338.368 101.127 338.368 104.589C338.368 215.164 260.495 329.622 130.135 329.622C104.649 329.622 79.539 324.558 55.9376 314.782L55.2641 314.504L55.9833 314.384C84.3696 309.685 111.418 297.23 134.001 278.219C137.676 275.098 139.039 270.06 137.445 265.53C135.85 261 131.598 257.926 126.766 257.81C126.766 257.81 126.766 257.81 126.766 257.81L126.771 257.602L338.156 94.2963ZM338.156 94.2963C337.972 90.5537 339.634 86.9717 342.593 84.6598M338.156 94.2963L337.501 53.977L337.614 54.1521C333.06 57.0873 331.165 62.7498 333.015 67.8352C334.863 72.9178 340.086 75.9933 345.356 75.3234C348.412 74.9238 351.443 74.4539 354.45 73.8668L355.139 73.7322L354.634 74.2208C350.817 77.92 346.811 81.4077 342.593 84.6598M48.8041 147.64L49.117 147.703C55.7847 149.041 62.0781 149.463 65.5526 149.557L65.5612 149.558L65.5697 149.558C70.5849 150.111 75.2344 146.611 76.9027 141.769C78.5437 136.961 76.856 131.622 72.7191 128.641C56.4297 116.901 38.9618 94.9865 38.9618 68.8004C38.9618 62.3597 39.7639 55.9898 41.2973 49.8324L41.3922 49.4516L41.6545 49.7435C82.2786 94.9518 137.71 122.243 196.476 125.416C200.361 125.624 203.57 124.101 205.907 121.371C208.241 118.645 209.166 114.947 208.426 111.433C208.426 111.432 208.426 111.432 208.426 111.432L48.8041 147.64ZM48.8041 147.64L48.8725 147.951M48.8041 147.64L48.8725 147.951M48.8725 147.951C54.6982 174.485 71.9486 193.831 95.4082 198.911L48.8725 147.951ZM342.593 84.6598L342.466 84.4948L342.594 84.659C342.594 84.6593 342.593 84.6595 342.593 84.6598ZM396.829 43.0337L396.829 43.0342C400.272 46.847 400.759 52.4865 398.054 56.8552C388.018 73.0253 375.75 87.22 361.486 99.1113L361.408 99.176L361.411 99.2769C361.458 101.04 361.481 102.803 361.481 104.589C361.481 226.578 274.932 352.735 130.136 352.735C85.8258 352.735 42.6195 339.101 5.21771 313.336L5.21716 313.336C0.826402 310.332 -0.930365 304.692 0.964778 299.723L0.964965 299.723C2.83927 294.771 7.73913 291.541 13.163 292.349L13.1688 292.35C41.4944 295.767 71.9161 290.017 97.5558 275.501L97.9352 275.286L97.5297 275.126C72.4621 265.221 52.294 243.366 43.8172 214.883C43.2482 212.966 43.1855 210.935 43.6351 208.986C44.0847 207.038 45.0312 205.24 46.3824 203.766C47.7473 202.309 49.4348 201.223 51.2819 200.623L51.6076 200.517L51.3638 200.276C33.9727 183.12 23.6138 157.74 23.6138 128.66V127.577C23.6138 122.91 26.3867 118.91 30.3642 117.06L30.5791 116.96L30.4524 116.76C21.81 103.092 15.8492 86.8007 15.8492 68.8006C15.8492 52.1989 19.9351 35.8329 27.6594 21.511C29.531 18.0453 33.0428 15.7803 36.9715 15.4789C40.8856 15.2944 44.6975 16.893 47.0512 20.0082L47.0513 20.0083C81.2245 65.1567 130.333 94.1527 183.474 101.031L183.723 101.063L183.708 100.812C183.591 98.8638 183.544 96.8916 183.544 94.9184C183.544 42.6909 223.416 0.208333 272.371 0.208333C294.691 0.208333 316.24 9.22104 332.508 25.1843L332.593 25.2672L332.707 25.237C346.375 21.6315 359.454 15.9052 371.613 8.10523C375.704 5.49381 380.928 5.72398 384.812 8.61448C388.672 11.5269 390.312 16.5188 388.925 21.1405L388.925 21.1413C386.836 28.2081 383.948 34.9466 380.402 41.2394L380.087 41.7993L380.671 41.531C381.542 41.1305 382.39 40.7301 383.237 40.3302C387.909 38.1566 393.409 39.2215 396.829 43.0337Z" fill="#3435CE" stroke="#3435CE" stroke-width="0.416667"/>
</svg>
