<svg width="179" height="40" viewBox="0 0 179 40" fill="none" xmlns="http://www.w3.org/2000/svg">
<path d="M41.82 32.9819C41.9527 33.1858 42.0633 33.3542 42.2257 33.6017C41.9527 33.6017 41.7537 33.6003 41.5548 33.602C38.6234 33.6282 35.6921 33.6452 32.7612 33.6917C32.341 33.6984 32.1194 33.5472 31.9159 33.2038C30.4694 30.7628 29.0048 28.3325 27.5495 25.8967C27.0493 25.0596 27.0537 25.043 26.0625 25.0461C23.793 25.0529 21.5236 25.0747 19.2543 25.0902C19.0482 25.0915 18.842 25.0904 18.5322 25.0904C19.8979 22.6653 21.2846 20.3376 22.6372 17.9692C20.4976 14.5643 18.365 11.1705 16.2227 7.76153C17.7932 5.23544 19.3575 2.71929 20.9668 0.130859C21.4842 0.940798 21.9609 1.68232 22.4331 2.4267C24.996 6.46749 27.557 10.5094 30.1204 14.55C32.7143 18.639 35.3102 22.7268 37.9055 26.8152C39.2029 28.859 40.5004 30.9029 41.82 32.9819Z" fill="#143AA0"/>
<path d="M18.9038 16.5964C19.2087 17.0764 19.4933 17.5207 19.7834 17.9733C17.8713 21.0184 15.973 24.0416 14.0333 27.1302C14.2235 27.1476 14.3441 27.1672 14.4647 27.1683C17.926 27.2011 21.3872 27.2408 24.8486 27.2529C25.3023 27.2545 25.5541 27.4008 25.7897 27.7886C26.8998 29.6157 28.0453 31.4211 29.1773 33.2348C29.2149 33.2952 29.2423 33.3622 29.2762 33.4297C28.8206 33.5708 0.914913 33.7031 0 33.5692C4.92485 25.8151 9.83997 18.0762 14.8106 10.25C16.2184 12.374 17.5276 14.4829 18.9038 16.5964Z" fill="#143AA0"/>
<path d="M155.403 11.4718C156.215 11.4699 156.972 11.4997 157.728 11.4593C159.063 11.3875 160.078 10.7466 160.878 9.53237C159.932 9.51755 159.076 9.52632 158.22 9.52488C157.333 9.52329 156.443 9.52457 155.554 9.52457C154.687 9.52457 153.822 9.52457 152.917 9.52457C152.917 8.57252 152.917 7.65984 152.917 6.7207C156.655 6.7207 160.375 6.7207 164.145 6.7207C164.37 7.91928 164.173 9.06831 163.722 10.1872C163.266 11.3187 162.507 12.224 161.549 12.982C162.988 15.3095 164.408 17.6053 165.862 19.958C164.711 19.958 163.629 19.958 162.512 19.958C161.328 18.0471 160.134 16.1213 158.96 14.2263C157.881 14.2628 156.848 14.2979 155.757 14.3348C155.757 16.1964 155.757 18.0584 155.757 19.9567C154.783 19.9567 153.868 19.9567 152.915 19.9567C152.915 17.151 152.915 14.3436 152.915 11.4718C153.731 11.4718 154.537 11.4718 155.403 11.4718Z" fill="#143AA0"/>
<path d="M76.5469 10.7267C75.7051 9.89782 74.7185 9.54642 73.5895 9.54945C72.0378 9.55359 70.4861 9.5504 68.9345 9.5504C68.7473 9.5504 68.56 9.5504 68.3332 9.5504C68.3332 8.60776 68.3332 7.69508 68.3332 6.75562C68.5028 6.74527 68.6505 6.7279 68.7981 6.72853C70.539 6.73666 72.28 6.7322 74.0206 6.76104C77.2192 6.81427 79.9877 9.26689 80.4473 12.4314C80.9434 15.8467 78.6808 19.1234 75.3029 19.8637C74.9368 19.9438 74.555 19.9832 74.18 19.9859C72.4203 19.9983 70.6604 19.9915 68.9006 19.9915C68.7159 19.9915 68.5312 19.9915 68.3203 19.9915C68.3203 17.1639 68.3203 14.3874 68.3203 11.6124C68.7278 11.491 70.5694 11.4743 71.1474 11.5931C71.1474 13.418 71.1474 15.2507 71.1474 17.1204C71.3215 17.1376 71.4646 17.1631 71.6079 17.1639C72.4026 17.1679 73.1974 17.168 73.9921 17.1653C75.8532 17.1591 77.5085 15.5841 77.6328 13.71C77.7083 12.5702 77.3608 11.5853 76.5469 10.7267Z" fill="#143AA0"/>
<path d="M150.854 14.9671C150.838 16.2383 150.382 17.258 149.509 18.1039C146.835 20.6908 142.492 20.6156 139.911 17.9327C139.171 17.1628 138.749 16.2383 138.738 15.1794C138.711 12.4356 138.728 9.69148 138.73 6.94738C138.73 6.89415 138.754 6.84092 138.774 6.75391C139.691 6.75391 140.607 6.75391 141.593 6.75391C141.593 6.96347 141.593 7.16634 141.593 7.36905C141.593 9.52637 141.595 11.6839 141.593 13.8412C141.592 14.9306 141.976 15.8452 142.849 16.508C143.876 17.2849 145.012 17.4042 146.162 16.8586C147.364 16.2892 147.974 15.2734 147.992 13.9503C148.017 11.9447 147.998 9.93849 147.998 7.93257C147.998 7.55551 147.998 7.17845 147.998 6.75996C148.947 6.75996 149.861 6.75996 150.854 6.75996C150.854 9.47952 150.854 12.1961 150.854 14.9671Z" fill="#143AA0"/>
<path d="M178.327 19.9924C174.531 19.9924 170.791 19.9924 167.023 19.9924C167.023 17.1447 167.023 14.3517 167.023 11.5234C170.614 11.5234 174.18 11.5234 177.828 11.5234C177.854 12.4428 177.84 13.3394 177.836 14.3197C176.493 14.3367 175.178 14.3251 173.865 14.3273C172.563 14.3294 171.259 14.3278 169.972 14.3278C169.843 14.7679 169.82 16.4676 169.932 17.1678C172.939 17.1678 175.956 17.1678 179 17.1678C179 18.1273 179 19.0273 179 19.9924C178.786 19.9924 178.584 19.9924 178.327 19.9924Z" fill="#143AA0"/>
<path d="M108.84 19.9915C105.079 19.9915 101.374 19.9915 97.627 19.9915C97.627 17.1591 97.627 14.3535 97.627 11.5264C101.21 11.5264 104.775 11.5264 108.372 11.5264C108.372 12.4625 108.372 13.3607 108.372 14.321C105.741 14.321 103.123 14.321 100.475 14.321C100.475 15.2824 100.475 16.1825 100.475 17.1387C103.491 17.1387 106.508 17.1387 109.569 17.1387C109.569 18.1077 109.569 19.0208 109.569 19.9915C109.339 19.9915 109.117 19.9915 108.84 19.9915Z" fill="#143AA0"/>
<path d="M114.103 12.3414C113.361 11.6094 112.648 10.9052 111.933 10.2027C111.784 10.0556 111.656 9.91636 111.659 9.67428C111.672 8.69164 111.664 7.70868 111.664 6.71122C112.105 6.55456 112.414 6.66421 112.736 6.98485C114.864 9.10838 117.012 11.2128 119.154 13.3229C119.296 13.4633 119.444 13.599 119.69 13.8319C119.69 11.3855 119.69 9.07348 119.69 6.73193C120.671 6.73193 121.587 6.73193 122.537 6.73193C122.537 11.1465 122.537 15.5437 122.537 19.9385C122.094 20.0966 121.791 19.9312 121.481 19.6226C119.039 17.1968 116.583 14.7854 114.103 12.3414Z" fill="#143AA0"/>
<path d="M95.3464 7.95063C93.1249 11.9768 90.9218 15.9652 88.7094 19.9704C88.4486 19.9704 88.1882 19.9704 87.9054 19.9704C87.4324 19.0858 86.9611 18.2045 86.4814 17.3074C88.467 13.7824 90.4512 10.2598 92.4331 6.74121C93.616 6.74121 94.7644 6.74121 95.999 6.74121C95.7702 7.16401 95.5675 7.53851 95.3464 7.95063Z" fill="#143AA0"/>
<path d="M59.6528 7.51202C61.9867 11.667 64.2982 15.7859 66.6407 19.9602C65.4139 19.9602 64.2549 19.9602 63.053 19.9602C61.0721 16.4382 59.0805 12.897 57.0752 9.33133C57.5597 8.46391 58.047 7.59171 58.5401 6.70898C58.7557 6.70898 58.9602 6.70898 59.2005 6.70898C59.3382 6.95472 59.4843 7.21545 59.6528 7.51202Z" fill="#143AA0"/>
<path d="M2.66569 14.9518C3.78013 12.8383 5.30381 11.1328 7.15691 9.70678C9.0441 8.25449 11.119 7.14834 13.3415 6.3104C13.9956 6.06386 14.6544 5.83039 15.3119 5.59342C15.4117 5.5574 15.5161 5.53493 15.7172 5.47852C15.4303 6.06976 15.2058 6.58355 14.9301 7.06834C14.8518 7.20603 14.6348 7.28985 14.4643 7.34595C11.9423 8.17736 9.64172 9.41785 7.59388 11.1078C5.28867 13.0101 3.64244 15.3711 2.84402 18.2702C2.34138 20.0954 2.24497 21.9649 2.4974 23.8429C2.61565 24.7223 2.78856 25.5945 2.95096 26.5547C2.67255 26.8675 2.33692 27.2445 1.99206 27.6321C0.781203 24.9655 0.301676 19.3633 2.66569 14.9518Z" fill="#143AA0"/>
<path d="M39.4713 24.8257C39.858 22.5254 39.8332 20.289 39.2078 18.0796C38.4241 15.3116 36.8323 13.0722 34.6624 11.229C32.5893 9.46832 30.2339 8.20424 27.6531 7.36024C27.3634 7.26558 27.1615 7.13172 27.0392 6.83721C26.8593 6.40358 26.6344 5.98859 26.3672 5.43945C26.945 5.63114 27.4286 5.75194 27.8792 5.94859C29.2815 6.56071 30.7076 7.13267 32.0581 7.84615C34.6685 9.22513 36.9122 11.0624 38.5788 13.5356C40.4995 16.3857 41.2699 19.5529 41.0941 22.9649C41.0169 24.4649 40.7599 25.9356 40.2901 27.3654C40.2628 27.4485 40.2228 27.5274 40.1639 27.6674C39.8338 27.3081 39.5495 26.9876 39.2523 26.6797C39.1079 26.5301 39.1447 26.3807 39.1842 26.2083C39.2858 25.7657 39.3709 25.3194 39.4713 24.8257Z" fill="#143AA0"/>
<path d="M29.8814 37.8646C27.2482 39.1342 24.4977 39.7709 21.6314 39.8613C19.6749 39.9229 17.7443 39.6264 15.8542 39.1231C12.8453 38.3218 10.0743 37.0085 7.55836 35.1654C7.48537 35.112 7.41844 35.0504 7.27246 34.9294C7.93191 34.7978 8.51598 34.7504 9.10388 34.7587C9.20157 34.7602 9.30006 34.8617 9.39456 34.9224C11.6112 36.3457 13.9871 37.3902 16.5704 37.9369C19.0392 38.4595 21.5195 38.5229 24.0136 38.1253C27.1127 37.6313 30.0114 36.5941 32.6972 34.9645C32.8193 34.8905 32.9748 34.8258 33.1118 34.8312C33.5413 34.8478 33.9695 34.8999 34.5289 34.95C33.0377 36.1395 31.5348 37.0796 29.8814 37.8646Z" fill="#143AA0"/>
<path d="M126.79 9.54847C126.054 9.54847 125.375 9.54847 124.651 9.54847C124.651 8.61459 124.651 7.70255 124.651 6.75879C128.655 6.75879 132.651 6.75879 136.686 6.75879C136.686 7.6737 136.686 8.5722 136.686 9.54847C133.404 9.54847 130.126 9.54847 126.79 9.54847Z" fill="#143AA0"/>
<path d="M176.066 9.54863C173.027 9.54863 170.043 9.54863 167.028 9.54863C167.028 8.60455 167.028 7.70558 167.028 6.7666C171.012 6.7666 174.987 6.7666 178.997 6.7666C178.997 7.6796 178.997 8.57762 178.997 9.54863C178.036 9.54863 177.079 9.54863 176.066 9.54863Z" fill="#143AA0"/>
<path d="M102.948 6.72656C105.176 6.72672 107.347 6.72672 109.6 6.72672C109.631 7.66681 109.608 8.57774 109.616 9.51879C105.584 9.51879 101.609 9.51879 97.6104 9.51879C97.6104 8.59001 97.6104 7.69088 97.6104 6.72656C99.3873 6.72656 101.139 6.72656 102.948 6.72656Z" fill="#143AA0"/>
<path d="M57.6847 14.4548C57.6898 14.5459 57.6927 14.6076 57.667 14.6535C56.6806 16.4198 55.6916 18.1844 54.6938 19.9658C53.5162 19.9658 52.3505 19.9658 51.1006 19.9658C52.7076 17.1033 54.2935 14.2784 55.9387 11.3477C56.547 12.427 57.1082 13.4226 57.6847 14.4548Z" fill="#143AA0"/>
<path d="M84.5863 13.9347C83.2437 11.5436 81.9224 9.18834 80.5713 6.78002C80.733 6.75627 80.8506 6.7244 80.9684 6.72392C81.8942 6.71978 82.8201 6.72408 83.7458 6.71978C83.961 6.71882 84.1414 6.72918 84.2682 6.95739C85.2214 8.67311 86.1855 10.3826 87.1503 12.1014C86.5636 13.1368 85.987 14.1543 85.3559 15.2678C85.0823 14.7935 84.845 14.382 84.5863 13.9347Z" fill="#143AA0"/>
<path d="M129.145 16.2337C129.145 14.647 129.145 13.1171 129.145 11.5488C130.1 11.5488 131.014 11.5488 131.966 11.5488C131.966 14.3473 131.966 17.1342 131.966 19.9566C131.046 19.9566 130.131 19.9566 129.145 19.9566C129.145 18.733 129.145 17.5118 129.145 16.2337Z" fill="#143AA0"/>
<path d="M123.77 30.8517C123.463 30.2307 123.176 29.6466 122.89 29.0626C122.848 29.0715 122.807 29.0802 122.766 29.089C122.756 29.2645 122.738 29.4399 122.737 29.6154C122.735 30.6938 122.739 31.7722 122.733 32.8507C122.732 33.0572 122.722 33.2701 122.67 33.4684C122.616 33.677 122.479 33.8424 122.233 33.8503C121.989 33.8583 121.842 33.7115 121.781 33.4962C121.729 33.3174 121.697 33.1265 121.697 32.9409C121.691 31.1056 121.688 29.2704 121.699 27.4351C121.7 27.1954 121.734 26.9341 121.834 26.7213C122.052 26.2603 122.531 26.2372 122.824 26.6528C122.922 26.7905 122.988 26.9503 123.064 27.1025C123.679 28.3371 124.293 29.5727 124.909 30.8068C124.981 30.951 125.067 31.0886 125.245 31.209C125.255 31.0334 125.273 30.858 125.274 30.6825C125.276 29.5662 125.272 28.4498 125.278 27.3335C125.279 27.1272 125.291 26.9142 125.345 26.7167C125.402 26.5044 125.566 26.3191 125.796 26.3744C125.952 26.4118 126.135 26.5616 126.199 26.7081C126.285 26.9068 126.294 27.1503 126.295 27.3747C126.302 29.1722 126.302 30.9697 126.295 32.767C126.295 32.992 126.277 33.226 126.213 33.4397C126.08 33.8859 125.609 34.0105 125.274 33.6846C125.115 33.5307 124.996 33.3257 124.894 33.1259C124.519 32.3844 124.158 31.6352 123.77 30.8517Z" fill="#143AA0"/>
<path d="M152.872 27.5412C152.887 27.3018 152.879 27.1091 152.917 26.9254C152.973 26.647 153.142 26.4361 153.425 26.3738C153.738 26.3053 153.918 26.5082 154.053 26.7536C154.144 26.9192 154.221 27.0919 154.305 27.2612C154.904 28.4626 155.503 29.6644 156.104 30.8652C156.176 31.0086 156.257 31.1471 156.431 31.2649C156.431 31.0853 156.431 30.9055 156.431 30.7259C156.433 29.5898 156.428 28.4539 156.436 27.3179C156.437 27.1131 156.444 26.8879 156.528 26.7107C156.598 26.564 156.774 26.4098 156.928 26.3743C157.156 26.3217 157.311 26.5071 157.381 26.719C157.425 26.8601 157.448 27.015 157.449 27.1636C157.452 29.0948 157.451 31.026 157.451 32.9572C157.451 33.0139 157.449 33.0708 157.445 33.1274C157.408 33.5347 157.255 33.7762 156.992 33.8412C156.707 33.9124 156.463 33.7961 156.246 33.4504C156.104 33.2271 155.986 32.9891 155.868 32.7518C155.333 31.6663 154.804 30.5785 154.268 29.4924C154.189 29.3304 154.099 29.1731 153.915 29.0288C153.915 29.1688 153.915 29.3085 153.915 29.4485C153.915 30.5844 153.919 31.7205 153.91 32.8563C153.908 33.0797 153.894 33.3229 153.803 33.5188C153.736 33.6622 153.55 33.8018 153.39 33.8383C153.156 33.8927 152.997 33.7005 152.942 33.4915C152.885 33.2756 152.876 33.0429 152.876 32.8176C152.871 31.0757 152.872 29.3339 152.872 27.5412Z" fill="#143AA0"/>
<path d="M108.115 26.5906C109.007 27.0363 109.199 27.8061 109.169 28.6587C109.139 29.5363 108.707 30.1602 107.819 30.4513C108.499 31.1384 108.866 31.9419 109.159 32.7848C109.219 32.9597 109.263 33.1545 109.253 33.337C109.241 33.5758 109.108 33.7712 108.86 33.8378C108.607 33.9057 108.415 33.7896 108.284 33.58C108.185 33.4205 108.105 33.2482 108.024 33.0782C107.739 32.482 107.48 31.8721 107.169 31.2902C106.834 30.6636 106.614 30.5841 105.812 30.7031C105.812 31.3463 105.816 32.0008 105.81 32.6552C105.808 32.9003 105.81 33.15 105.765 33.3891C105.716 33.6453 105.561 33.8449 105.269 33.8519C104.976 33.859 104.818 33.6718 104.761 33.41C104.718 33.2085 104.702 32.9978 104.701 32.7913C104.697 31.033 104.698 29.2746 104.699 27.5163C104.699 27.4032 104.702 27.2891 104.715 27.1769C104.777 26.6473 104.95 26.4628 105.476 26.472C106.342 26.4875 107.207 26.5399 108.115 26.5906ZM106.202 27.5664C106.079 27.5852 105.956 27.604 105.845 27.621C105.845 28.2948 105.845 28.9264 105.845 29.6078C106.18 29.6078 106.479 29.6144 106.777 29.6053C106.946 29.6002 107.116 29.5823 107.282 29.5484C107.837 29.4341 108.089 29.0728 108.044 28.4757C108.001 27.9036 107.719 27.61 107.158 27.5767C106.876 27.56 106.592 27.5689 106.202 27.5664Z" fill="#143AA0"/>
<path d="M171.038 26.9943C171.8 26.3787 172.627 26.2061 173.521 26.4674C174.289 26.6918 174.775 27.2188 174.96 28.0023C174.997 28.1608 175.017 28.361 174.952 28.4966C174.869 28.666 174.714 28.8469 174.547 28.9169C174.327 29.0093 174.165 28.8216 174.053 28.6345C173.965 28.4885 173.891 28.335 173.814 28.1836C173.32 27.222 172.157 27.3587 171.636 28.0142C171.33 28.3978 171.192 28.8482 171.122 29.3194C171.016 30.0385 171.036 30.7554 171.251 31.4555C171.714 32.9666 173.008 32.9469 173.954 32.333C174.047 32.2724 174.131 32.13 174.139 32.019C174.165 31.7041 174.149 31.3859 174.149 31.0122C173.798 31.0122 173.499 31.0283 173.202 31.008C172.828 30.9824 172.663 30.8053 172.668 30.4823C172.675 30.1546 172.845 29.9636 173.2 29.9503C173.653 29.9336 174.109 29.9323 174.561 29.9591C174.971 29.9832 175.138 30.1508 175.154 30.5731C175.177 31.197 175.162 31.8224 175.156 32.4471C175.154 32.7346 174.997 32.9464 174.78 33.1156C174.08 33.6616 173.298 33.9485 172.404 33.8401C171.459 33.7258 170.8 33.1988 170.399 32.3563C169.919 31.3494 169.852 30.2831 170.007 29.1929C170.123 28.3685 170.383 27.6112 171.038 26.9943Z" fill="#143AA0"/>
<path d="M75.3277 33.2534C75.2418 33.6265 75.0303 33.7497 74.6982 33.746C73.7344 33.7358 72.77 33.7502 71.8062 33.7382C71.357 33.7328 71.1965 33.5766 71.1342 33.1384C71.1104 32.9705 71.1071 32.7989 71.1068 32.629C71.105 30.9452 71.1025 29.2613 71.1072 27.5773C71.1099 26.5917 71.2395 26.4677 72.218 26.4672C73.012 26.4669 73.8061 26.4603 74.5999 26.4705C75.0397 26.4761 75.2251 26.6495 75.2367 27.0192C75.2486 27.3973 75.0625 27.5955 74.6443 27.6041C74.0397 27.6165 73.4346 27.6078 72.8296 27.6079C72.6445 27.6081 72.4593 27.6079 72.241 27.6079C72.241 28.215 72.241 28.7738 72.241 29.378C72.3728 29.3922 72.5148 29.4193 72.6571 29.4204C73.243 29.4255 73.8294 29.4143 74.415 29.4258C74.8346 29.4341 75.0026 29.5912 75.0155 29.9415C75.0294 30.3173 74.8521 30.5026 74.4099 30.5168C73.8811 30.534 73.3514 30.5218 72.8222 30.5221C72.6371 30.5222 72.4523 30.5221 72.2375 30.5221C72.2375 31.2115 72.2375 31.8454 72.2375 32.5575C72.6116 32.5575 72.9637 32.5573 73.3159 32.5575C73.7506 32.5575 74.1855 32.5519 74.6203 32.5592C75.1699 32.5685 75.2233 32.6219 75.3277 33.2534Z" fill="#143AA0"/>
<path d="M90.6372 27.0916C91.179 28.8486 91.7051 30.5654 92.2254 32.2839C92.3017 32.5361 92.3795 32.7943 92.4028 33.0545C92.4184 33.2313 92.3814 33.4399 92.2952 33.593C92.0906 33.9561 91.6756 33.9521 91.4958 33.5782C91.3417 33.2574 91.2571 32.9028 91.1454 32.5619C91.0925 32.4005 91.0483 32.2362 90.9897 32.038C90.2647 32.038 89.5349 32.038 88.7586 32.038C88.6599 32.3637 88.5583 32.7033 88.4537 33.0421C88.4037 33.2045 88.3551 33.368 88.2939 33.5264C88.2215 33.7135 88.0913 33.8998 87.8832 33.8388C87.7069 33.7871 87.4625 33.6377 87.4312 33.4922C87.3713 33.212 87.3861 32.8883 87.4657 32.6101C87.9383 30.9565 88.4376 29.3106 88.9304 27.6628C89.0061 27.4095 89.0858 27.1569 89.178 26.9094C89.2909 26.6068 89.4866 26.3796 89.8318 26.3606C90.1788 26.3415 90.39 26.5501 90.5331 26.842C90.5663 26.9098 90.591 26.9818 90.6372 27.0916ZM90.3475 30.9007C90.4399 30.8931 90.5323 30.8856 90.6773 30.8735C90.4139 29.9233 90.1576 28.9989 89.9014 28.0746C89.8681 28.0803 89.8346 28.086 89.8012 28.0918C89.5559 29.0097 89.3106 29.9276 89.0505 30.9009C89.4974 30.9009 89.8714 30.9009 90.3475 30.9007Z" fill="#143AA0"/>
<path d="M111.664 17.4841C111.664 15.899 111.664 14.3709 111.664 12.7119C111.933 12.9736 112.117 13.151 112.299 13.3299C112.947 13.9664 113.594 14.6033 114.241 15.2404C114.388 15.3851 114.53 15.515 114.528 15.7618C114.516 17.1411 114.522 18.5208 114.522 19.9421C113.578 19.9421 112.663 19.9421 111.664 19.9421C111.664 19.1502 111.664 18.3456 111.664 17.4841Z" fill="#143AA0"/>
<path d="M55.2037 26.5436C55.697 26.2823 55.9628 26.3769 56.0716 26.841C56.1269 27.0772 56.1342 27.3283 56.1352 27.5728C56.1408 29.0104 56.1381 30.4482 56.1381 31.886C56.1381 32.0702 56.1381 32.2545 56.1381 32.4892C56.7343 32.4892 57.2778 32.4889 57.8216 32.4894C58.0106 32.4895 58.201 32.4765 58.3883 32.4956C58.7601 32.5338 58.9386 32.7641 58.9249 33.1584C58.9121 33.5275 58.7437 33.7305 58.3738 33.7364C57.4669 33.7511 56.5593 33.7507 55.6523 33.7354C55.2813 33.7292 55.1067 33.5514 55.0442 33.1885C55.022 33.0591 55.0228 32.9248 55.0228 32.7925C55.0216 30.9764 55.016 29.1602 55.0286 27.3443C55.0303 27.0885 55.1234 26.8335 55.2037 26.5436Z" fill="#143AA0"/>
<path d="M139.048 32.4742C139.048 30.7354 139.044 29.0518 139.052 27.3683C139.052 27.1458 139.084 26.9165 139.146 26.7033C139.21 26.4897 139.379 26.3524 139.615 26.3629C139.848 26.3732 140.004 26.5184 140.067 26.7324C140.122 26.9114 140.161 27.1023 140.161 27.2881C140.169 29.1608 140.169 31.0337 140.161 32.9064C140.161 33.1107 140.122 33.3231 140.056 33.5164C139.985 33.7244 139.812 33.8952 139.585 33.8406C139.424 33.802 139.205 33.6661 139.167 33.5303C139.078 33.2104 139.081 32.8648 139.048 32.4742Z" fill="#143AA0"/>
</svg>
