<svg width="21" height="16" viewBox="0 0 21 16" fill="none" xmlns="http://www.w3.org/2000/svg">
<path d="M19.1356 1.37925C20.3487 2.65906 21 4.09447 21 6.42129C21 10.3646 18.3158 13.9141 14.3584 15.7916C14.0946 15.9167 13.7814 15.8214 13.6218 15.5768L13.2032 14.9351C13.0111 14.6408 13.1143 14.2455 13.4157 14.0646C16.8502 12.0044 17.5574 9.45201 17.8482 7.81224C17.2158 8.13746 16.3878 8.25093 15.5763 8.17606C13.4515 7.9807 11.7767 6.24815 11.7767 4.09447C11.7767 3.00855 12.211 1.9671 12.9841 1.19924C13.7572 0.43138 14.8057 0 15.899 0C17.1628 0 18.3712 0.573225 19.1356 1.37925ZM7.35766 1.37925C8.57078 2.65906 9.2221 4.09447 9.2221 6.42129C9.2221 10.2887 6.64036 13.7772 2.80781 15.6812C2.41559 15.8761 1.9452 15.7321 1.70589 15.3653L1.60376 15.2087C1.31567 14.7672 1.47072 14.1757 1.9158 13.8931C5.11103 11.8643 5.78754 9.40678 6.07033 7.81224C5.43786 8.13746 4.60987 8.25093 3.79837 8.17606C1.67364 7.9807 0 6.24815 0 4.09447C0 3.00855 0.434309 1.9671 1.20738 1.19924C1.98046 0.43138 3.02897 0 4.12227 0C5.38603 0 6.59445 0.573225 7.35883 1.37925H7.35766Z" fill="#042C9A" fill-opacity="0.65"/>
</svg>
