<svg width="434" height="434" viewBox="0 0 434 434" fill="none" xmlns="http://www.w3.org/2000/svg">
<path d="M17 194.778C17 110.972 17 69.07 43.0349 43.0349C69.07 17 110.972 17 194.778 17H239.222C323.027 17 364.931 17 390.964 43.0349C417 69.07 417 110.972 417 194.778V239.222C417 323.027 417 364.931 390.964 390.964C364.931 417 323.027 417 239.222 417H194.778C110.972 417 69.07 417 43.0349 390.964C17 364.931 17 323.027 17 239.222V194.778Z" stroke="#222222" stroke-width="33.3333"/>
<path d="M316.997 150.333C335.407 150.333 350.331 135.409 350.331 117C350.331 98.5905 335.407 83.6666 316.997 83.6666C298.588 83.6666 283.664 98.5905 283.664 117C283.664 135.409 298.588 150.333 316.997 150.333Z" fill="#222222"/>
<path d="M216.997 294.778C259.952 294.778 294.774 259.955 294.774 217C294.774 174.044 259.952 139.222 216.997 139.222C174.041 139.222 139.219 174.044 139.219 217C139.219 259.955 174.041 294.778 216.997 294.778Z" stroke="#222222" stroke-width="33.3333"/>
</svg>
