<svg width="400" height="292" viewBox="0 0 400 292" fill="none" xmlns="http://www.w3.org/2000/svg">
<path d="M351.364 6.07273C351.364 6.07273 303.091 0 199.418 0C99.1091 0 48.6182 6.07273 48.6182 6.07273C35.7222 6.07755 23.356 11.2039 14.2388 20.3244C5.12168 29.445 2.49895e-06 41.8131 3.40006e-06 54.7091V237.145C-0.00238472 243.532 1.25327 249.857 3.69527 255.759C6.13727 261.661 9.71779 267.024 14.2324 271.542C18.747 276.06 24.1073 279.644 30.0072 282.091C35.9072 284.537 42.2312 285.798 48.6182 285.8C48.6182 285.8 95.5636 291.836 199.418 291.836C303.218 291.836 351.364 285.8 351.364 285.8C357.754 285.805 364.082 284.549 369.986 282.106C375.89 279.662 381.254 276.078 385.772 271.559C390.289 267.04 393.871 261.674 396.313 255.769C398.754 249.864 400.007 243.535 400 237.145V54.6727C400 48.2874 398.742 41.9647 396.297 36.0659C393.852 30.1671 390.269 24.8079 385.752 20.2945C381.236 15.7811 375.874 12.202 369.973 9.76175C364.073 7.32151 357.749 6.06795 351.364 6.07273ZM146.564 218.182V73.7273L276.273 145.909L146.564 218.182Z" fill="black"/>
</svg>
