<svg width="400" height="353" viewBox="0 0 400 353" fill="none" xmlns="http://www.w3.org/2000/svg">
<path fill-rule="evenodd" clip-rule="evenodd" d="M342.466 84.4948C339.454 86.8478 337.76 90.4949 337.948 94.3065C338.066 97.7184 338.16 101.13 338.16 104.589C338.16 215.084 260.348 329.414 130.135 329.414C104.676 329.414 79.5939 324.355 56.0173 314.59C84.441 309.884 111.523 297.413 134.135 278.378C137.876 275.202 139.265 270.072 137.641 265.46C136.018 260.849 131.688 257.719 126.771 257.602C104.818 257.154 84.9349 244.543 73.3586 224.848C81.2878 224.613 89.8293 223.366 96.2294 221.507C101.406 220.001 104.888 215.178 104.723 209.813C104.535 204.425 100.723 199.86 95.4527 198.707C72.088 193.648 54.8879 174.378 49.076 147.907C55.7585 149.248 62.0644 149.671 65.5469 149.766C70.6761 150.33 75.4057 146.754 77.0997 141.836C78.7705 136.942 77.0526 131.507 72.8409 128.472C56.5821 116.754 39.1701 94.8949 39.1701 68.8004C39.1701 62.377 39.9701 56.024 41.4995 49.8828C82.1587 95.1301 137.641 122.448 196.465 125.624C200.418 125.836 203.689 124.283 206.065 121.507C208.442 118.73 209.383 114.965 208.63 111.389C207.453 106.048 206.865 100.518 206.865 94.9184C206.865 55.5534 236.253 23.5297 272.371 23.5297C290.536 23.5297 307.43 31.412 319.901 45.7652C322.677 48.9653 327.054 50.4476 331.195 49.5534C337.172 48.2828 343.054 46.6827 348.842 44.7298C345.407 48.2121 341.619 51.3182 337.501 53.977C332.866 56.9651 330.936 62.7299 332.819 67.9064C334.701 73.0829 340.019 76.2123 345.383 75.53C348.442 75.13 351.478 74.6594 354.489 74.0712C350.678 77.7652 346.678 81.2477 342.466 84.4948ZM396.984 42.8946C393.501 39.0121 387.901 37.93 383.148 40.1417C382.301 40.5417 381.454 40.9417 380.584 41.3417C384.137 35.0356 387.031 28.2827 389.125 21.2003C390.537 16.4945 388.866 11.4119 384.937 8.44734C380.984 5.50607 375.666 5.27086 371.501 7.92963C359.36 15.718 346.301 21.4355 332.654 25.0355C316.348 9.03546 294.748 0 272.371 0C223.289 0 183.335 42.5886 183.335 94.9184C183.335 96.8949 183.383 98.8714 183.5 100.824C130.418 93.9536 81.3587 64.9887 47.2174 19.8826C44.8174 16.7061 40.9351 15.0826 36.9586 15.2709C32.9586 15.5767 29.3821 17.8826 27.4761 21.412C19.735 35.765 15.6408 52.1651 15.6408 68.8006C15.6408 86.8477 21.6173 103.177 30.2763 116.871C26.2292 118.754 23.4054 122.824 23.4054 127.577V128.66C23.4054 157.789 33.7822 183.225 51.2175 200.425C49.3352 201.036 47.6175 202.143 46.2293 203.625C44.8535 205.125 43.8898 206.956 43.4321 208.939C42.9744 210.923 43.0382 212.991 43.6174 214.943C52.1116 243.484 72.3234 265.39 97.4531 275.319C71.853 289.813 41.4762 295.555 13.1937 292.143C7.66432 291.319 2.67596 294.613 0.770121 299.649C-1.15926 304.708 0.629078 310.449 5.09952 313.508C42.5351 339.296 85.7824 352.943 130.136 352.943C275.077 352.943 361.69 226.66 361.69 104.589C361.69 102.801 361.666 101.036 361.619 99.2714C375.901 87.3653 388.184 73.1535 398.231 56.9651C400.984 52.5182 400.49 46.7769 396.984 42.8946Z" fill="black"/>
</svg>
