<svg width="400" height="400" viewBox="0 0 400 400" fill="none" xmlns="http://www.w3.org/2000/svg">
<path d="M296 0H104C76.4175 0 49.9647 10.9571 30.4609 30.4609C10.9571 49.9647 0 76.4175 0 104V296C0 323.583 10.9571 350.035 30.4609 369.539C49.9647 389.043 76.4175 400 104 400H296C323.583 400 350.035 389.043 369.539 369.539C389.043 350.035 400 323.583 400 296V104C400 76.4175 389.043 49.9647 369.539 30.4609C350.035 10.9571 323.583 0 296 0ZM208 384V248C208 245.878 207.157 243.843 205.657 242.343C204.157 240.843 202.122 240 200 240H160V192H200C202.122 192 204.157 191.157 205.657 189.657C207.157 188.157 208 186.122 208 184V120C208 109.391 212.214 99.2172 219.716 91.7157C227.217 84.2143 237.391 80 248 80H312V128H280C273.635 128 267.53 130.529 263.029 135.029C258.529 139.53 256 145.635 256 152V184C256 186.122 256.843 188.157 258.343 189.657C259.843 191.157 261.878 192 264 192H312V240H264C261.878 240 259.843 240.843 258.343 242.343C256.843 243.843 256 245.878 256 248V384H208ZM384 296C384 319.339 374.729 341.722 358.225 358.225C341.722 374.729 319.339 384 296 384H272V256H320C322.122 256 324.157 255.157 325.657 253.657C327.157 252.157 328 250.122 328 248V184C328 181.878 327.157 179.843 325.657 178.343C324.157 176.843 322.122 176 320 176H272V152C272 149.878 272.843 147.843 274.343 146.343C275.843 144.843 277.878 144 280 144H320C322.122 144 324.157 143.157 325.657 141.657C327.157 140.157 328 138.122 328 136V72C328 69.8783 327.157 67.8434 325.657 66.3431C324.157 64.8429 322.122 64 320 64H248C233.148 64 218.904 69.9 208.402 80.402C197.9 90.9041 192 105.148 192 120V176H152C149.878 176 147.843 176.843 146.343 178.343C144.843 179.843 144 181.878 144 184V248C144 250.122 144.843 252.157 146.343 253.657C147.843 255.157 149.878 256 152 256H192V384H104C80.6609 384 58.2778 374.729 41.7746 358.225C25.2714 341.722 16 319.339 16 296V104C16 80.6609 25.2714 58.2778 41.7746 41.7746C58.2778 25.2714 80.6609 16 104 16H296C319.339 16 341.722 25.2714 358.225 41.7746C374.729 58.2778 384 80.6609 384 104V296Z" fill="black"/>
</svg>
