<svg width="76" height="75" viewBox="0 0 76 75" fill="none" xmlns="http://www.w3.org/2000/svg">
<rect x="0.666992" width="75" height="75" rx="37.5" fill="#E5E8F1"/>
<path d="M32.667 28.9092L43.3337 35.4546L32.667 42.0001V28.9092Z" stroke="#143AA0" stroke-width="2.2" stroke-linecap="round" stroke-linejoin="round"/>
<path d="M53.1793 44.5153V26.3941C53.1793 25.9762 53.0153 25.5754 52.7233 25.2799C52.4313 24.9844 52.0353 24.8184 51.6224 24.8184H24.3772C23.9643 24.8184 23.5683 24.9844 23.2763 25.2799C22.9843 25.5754 22.8203 25.9762 22.8203 26.3941V44.5153C22.8203 44.9332 22.9843 45.334 23.2763 45.6296C23.5683 45.9251 23.9643 46.0911 24.3772 46.0911H51.6224C52.0353 46.0911 52.4313 45.9251 52.7233 45.6296C53.0153 45.334 53.1793 44.9332 53.1793 44.5153Z" stroke="#143AA0" stroke-width="2.2" stroke-linecap="round" stroke-linejoin="round"/>
<path d="M32.667 49.3633H43.3337" stroke="#143AA0" stroke-width="2.2" stroke-linecap="round" stroke-linejoin="round"/>
</svg>
