<svg width="400" height="400" viewBox="0 0 400 400" fill="none" xmlns="http://www.w3.org/2000/svg">
<path fill-rule="evenodd" clip-rule="evenodd" d="M0 80C0 35.8172 35.8172 0 80 0H320C364.182 0 400 35.8172 400 80V320C400 364.182 364.182 400 320 400H80C35.8172 400 0 364.182 0 320V80ZM80 40C57.9086 40 40 57.9086 40 80V320C40 342.092 57.9086 360 80 360H200V220H180C168.954 220 160 211.046 160 200C160 188.954 168.954 180 180 180H200V150C200 111.34 231.34 80 270 80H282C293.046 80 302 88.9544 302 100C302 111.046 293.046 120 282 120H270C253.432 120 240 133.431 240 150V180H282C293.046 180 302 188.954 302 200C302 211.046 293.046 220 282 220H240V360H320C342.092 360 360 342.092 360 320V80C360 57.9086 342.092 40 320 40H80Z" fill="black"/>
</svg>
