<svg width="17" height="13" viewBox="0 0 17 13" fill="none" xmlns="http://www.w3.org/2000/svg">
<path d="M15.6002 2.91071L12.7516 4.50036C11.1634 5.3866 10.3693 5.82977 9.52836 6.0035C8.78404 6.15722 8.01636 6.15722 7.27204 6.0035C6.43111 5.82977 5.63702 5.3866 4.04884 4.50036L1.2002 2.91071M3.7602 11.75H13.0402C13.9363 11.75 14.3844 11.75 14.7266 11.5748C15.0276 11.4208 15.2724 11.1749 15.4258 10.8725C15.6002 10.5287 15.6002 10.0787 15.6002 9.17857V3.07143C15.6002 2.17135 15.6002 1.7213 15.4258 1.37752C15.2724 1.07511 15.0276 0.829247 14.7266 0.67517C14.3844 0.5 13.9363 0.5 13.0402 0.5H3.7602C2.86412 0.5 2.41607 0.5 2.07381 0.67517C1.77275 0.829247 1.52798 1.07511 1.37459 1.37752C1.2002 1.7213 1.2002 2.17134 1.2002 3.07143V9.17857C1.2002 10.0787 1.2002 10.5287 1.37459 10.8725C1.52798 11.1749 1.77275 11.4208 2.07381 11.5748C2.41607 11.75 2.86411 11.75 3.7602 11.75Z" stroke="#143AA0" stroke-linecap="round" stroke-linejoin="round"/>
</svg>
