<svg width="76" height="75" viewBox="0 0 76 75" fill="none" xmlns="http://www.w3.org/2000/svg">
<rect x="0.503906" width="75" height="75" rx="37.5" fill="#E5E8F1"/>
<path d="M38.4594 26.5C40.5279 26.5 42.2094 24.817 42.2094 22.75C42.2094 20.683 40.5279 19 38.4594 19C36.3909 19 34.7094 20.683 34.7094 22.75C34.7094 24.817 36.3909 26.5 38.4594 26.5ZM38.4594 20.5C39.6999 20.5 40.7094 21.5095 40.7094 22.75C40.7094 23.9905 39.6999 25 38.4594 25C37.2189 25 36.2094 23.9905 36.2094 22.75C36.2094 21.5095 37.2189 20.5 38.4594 20.5ZM56.4594 27.25V47.0965C56.4594 48.0235 56.1159 48.9175 55.4919 49.6105L50.6964 55H48.6804L54.3789 48.6055C54.7539 48.19 54.9594 47.653 54.9594 47.0965V27.25C54.9594 26.0095 53.9499 25 52.7094 25C51.4689 25 50.4594 26.0095 50.4594 27.25V40.75H50.4489C50.4489 41.605 50.1639 42.46 49.5834 43.1515L44.9349 47.9605L43.8564 46.918L48.4689 42.1495C48.8064 41.7475 48.9684 41.2315 48.9579 40.714V40.699C48.9429 40.18 48.7539 39.6595 48.3849 39.2485C47.9844 38.803 47.4339 38.5375 46.8369 38.5045C46.2444 38.482 45.6639 38.674 45.2169 39.0745L39.4299 44.3995C39.7614 44.968 39.9579 45.6115 39.9579 46.2805V55.0015H38.4579V46.2805C38.4579 45.6535 38.1924 45.049 37.7319 44.6245L31.6929 39.0685C31.2549 38.674 30.6804 38.482 30.0804 38.506C29.4834 38.539 28.9314 38.803 28.5324 39.25C27.7914 40.0765 27.7704 41.341 28.4844 42.19L33.0624 46.9195L31.9839 47.962L27.3714 43.1935C26.7729 42.4825 26.4789 41.614 26.4759 40.753H26.4609V27.25C26.4609 26.0095 25.4514 25 24.2109 25C22.9704 25 21.9609 26.0095 21.9609 27.25V47.0965C21.9609 47.653 22.1664 48.19 22.5414 48.6055L28.2399 55H26.2239L21.4284 49.6105C20.8044 48.9175 20.4609 48.0235 20.4609 47.0965V27.25C20.4609 25.183 22.1424 23.5 24.2109 23.5C26.2794 23.5 27.9609 25.183 27.9609 27.25V37.7485C29.3574 36.6985 31.3509 36.745 32.7039 37.954L38.4609 43.2505L44.2104 37.96C44.9634 37.285 45.9234 36.9385 46.9224 37.0045C47.6724 37.045 48.3759 37.303 48.9609 37.7455V27.25C48.9609 25.183 50.6424 23.5 52.7109 23.5C54.7794 23.5 56.4594 25.183 56.4594 27.25ZM33.9594 35.179C33.4824 34.858 32.9844 34.582 32.4594 34.396V31.75C32.4594 29.683 34.1409 28 36.2094 28H40.7094C42.7779 28 44.4594 29.683 44.4594 31.75V34.4035C43.9344 34.5895 43.4379 34.8625 42.9594 35.1835V31.75C42.9594 30.508 41.9514 29.5 40.7094 29.5H36.2094C34.9674 29.5 33.9594 30.508 33.9594 31.75V35.179Z" fill="#143AA0"/>
</svg>
