<svg width="75" height="75" viewBox="0 0 75 75" fill="none" xmlns="http://www.w3.org/2000/svg">
<rect width="75" height="75" rx="37.5" fill="#E5E8F1"/>
<g clip-path="url(#clip0_1_4241)">
<path d="M26.459 26.4995C28.5275 26.4995 30.209 24.818 30.209 22.7495C30.209 20.681 28.5275 18.9995 26.459 18.9995C24.3905 18.9995 22.709 20.681 22.709 22.7495C22.709 24.818 24.3905 26.4995 26.459 26.4995ZM26.459 20.4995C27.6995 20.4995 28.709 21.509 28.709 22.7495C28.709 23.99 27.6995 24.9995 26.459 24.9995C25.2185 24.9995 24.209 23.99 24.209 22.7495C24.209 21.509 25.2185 20.4995 26.459 20.4995ZM42.209 30.9995C40.1405 30.9995 38.459 32.681 38.459 34.7495C38.459 36.818 40.1405 38.4995 42.209 38.4995C44.2775 38.4995 45.959 36.818 45.959 34.7495C45.959 32.681 44.2775 30.9995 42.209 30.9995ZM42.209 36.9995C40.9685 36.9995 39.959 35.99 39.959 34.7495C39.959 33.509 40.9685 32.4995 42.209 32.4995C43.4495 32.4995 44.459 33.509 44.459 34.7495C44.459 35.99 43.4495 36.9995 42.209 36.9995ZM42.209 39.9995C39.728 39.9995 37.709 42.0185 37.709 44.4995V46.7495C37.709 47.972 38.3045 49.049 39.212 49.733C39.212 49.739 39.209 49.7435 39.209 49.7495V54.2495C39.209 54.6635 39.545 54.9995 39.959 54.9995C40.373 54.9995 40.709 54.6635 40.709 54.2495V50.423C40.952 50.4725 41.2025 50.4995 41.459 50.4995H42.959C43.2155 50.4995 43.466 50.4725 43.709 50.423V54.2495C43.709 54.6635 44.045 54.9995 44.459 54.9995C44.873 54.9995 45.209 54.6635 45.209 54.2495V49.7495C45.209 49.7495 45.206 49.739 45.206 49.733C46.1135 49.0475 46.709 47.972 46.709 46.7495V44.4995C46.709 42.0185 44.69 39.9995 42.209 39.9995ZM45.209 46.7495C45.209 47.99 44.1995 48.9995 42.959 48.9995H41.459C40.2185 48.9995 39.209 47.99 39.209 46.7495V44.4995C39.209 42.845 40.5545 41.4995 42.209 41.4995C43.8635 41.4995 45.209 42.845 45.209 44.4995V46.7495ZM51.209 32.4995C53.2775 32.4995 54.959 30.818 54.959 28.7495C54.959 26.681 53.2775 24.9995 51.209 24.9995C49.1405 24.9995 47.459 26.681 47.459 28.7495C47.459 30.818 49.1405 32.4995 51.209 32.4995ZM51.209 26.4995C52.4495 26.4995 53.459 27.509 53.459 28.7495C53.459 29.99 52.4495 30.9995 51.209 30.9995C49.9685 30.9995 48.959 29.99 48.959 28.7495C48.959 27.509 49.9685 26.4995 51.209 26.4995ZM55.709 38.4995V40.7495C55.709 41.972 55.1135 43.049 54.206 43.733C54.206 43.739 54.209 43.7435 54.209 43.7495V48.2495C54.209 48.6635 53.873 48.9995 53.459 48.9995C53.045 48.9995 52.709 48.6635 52.709 48.2495V44.423C52.466 44.4725 52.2155 44.4995 51.959 44.4995H50.459C50.045 44.4995 49.709 44.1635 49.709 43.7495C49.709 43.3355 50.045 42.9995 50.459 42.9995H51.959C53.1995 42.9995 54.209 41.99 54.209 40.7495V38.4995C54.209 36.845 52.8635 35.4995 51.209 35.4995C50.552 35.4995 49.931 35.7065 49.4105 36.098C49.082 36.347 48.608 36.2825 48.3605 35.9495C48.1115 35.618 48.1775 35.1485 48.509 34.8995C49.292 34.31 50.2265 33.998 51.2105 33.998C53.6915 33.998 55.7105 36.017 55.7105 38.498L55.709 38.4995ZM38.459 29.4995C38.873 29.4995 39.209 29.1635 39.209 28.7495V26.813L44.3615 24.233C44.8925 23.8685 45.209 23.249 45.209 22.577C45.209 21.905 44.8925 21.287 44.3615 20.921C44.324 20.894 40.3925 19.1495 40.1525 19.0775C39.581 18.905 38.978 19.013 38.4935 19.3715C38.003 19.736 37.7105 20.318 37.7105 20.927V27.9965H24.959C22.064 27.9965 19.709 30.3515 19.709 33.2465V39.2465C19.709 41.333 20.942 43.124 22.709 43.97V54.2465C22.709 54.6605 23.045 54.9965 23.459 54.9965C23.873 54.9965 24.209 54.6605 24.209 54.2465V44.42C24.4565 44.456 24.7025 44.4965 24.959 44.4965H28.709V54.2465C28.709 54.6605 29.045 54.9965 29.459 54.9965C29.873 54.9965 30.209 54.6605 30.209 54.2465V29.4995H38.459ZM39.209 20.93C39.209 20.732 39.3335 20.6195 39.3875 20.579C39.431 20.5475 39.683 20.5055 39.722 20.5175C39.9005 20.57 40.079 20.636 40.2545 20.7155L43.55 22.19C43.649 22.28 43.7075 22.421 43.7075 22.5785C43.7075 22.7555 43.634 22.913 43.5995 22.9445L39.2075 25.1375V20.93H39.209ZM28.709 42.9995H24.959C22.8905 42.9995 21.209 41.318 21.209 39.2495V33.2495C21.209 31.181 22.8905 29.4995 24.959 29.4995H28.709V42.9995Z" fill="#143AA0"/>
</g>
<defs>
<clipPath id="clip0_1_4241">
<rect width="36" height="36" fill="white" transform="translate(19.709 19)"/>
</clipPath>
</defs>
</svg>