<svg width="75" height="75" viewBox="0 0 75 75" fill="none" xmlns="http://www.w3.org/2000/svg">
<rect width="75" height="75" rx="37.5" fill="#E5E8F1"/>
<path fill-rule="evenodd" clip-rule="evenodd" d="M53.957 19V55H24.0904V46.7647H23.0237C22.4349 46.7647 21.957 46.2903 21.957 45.7059C21.957 45.1214 22.4349 44.6471 23.0237 44.6471H24.0904V38.2941H23.0237C22.4349 38.2941 21.957 37.8198 21.957 37.2353C21.957 36.6508 22.4349 36.1765 23.0237 36.1765H24.0904V29.8235H23.0237C22.4349 29.8235 21.957 29.3492 21.957 28.7647C21.957 28.1802 22.4349 27.7059 23.0237 27.7059H24.0904V19H53.957ZM51.8237 21.1176H26.2237V27.7059H27.2904C27.8792 27.7059 28.357 28.1802 28.357 28.7647C28.357 29.3492 27.8792 29.8235 27.2904 29.8235H26.2237V36.1765H27.2904C27.8792 36.1765 28.357 36.6508 28.357 37.2353C28.357 37.8198 27.8792 38.2941 27.2904 38.2941H26.2237V44.6471H27.2904C27.8792 44.6471 28.357 45.1214 28.357 45.7059C28.357 46.2903 27.8792 46.7647 27.2904 46.7647H26.2237V52.8824H51.8237V21.1176L51.8237 21.1176ZM32.0413 26.9725H46.1707V29.0901H32.0412L32.0413 26.9725ZM32.0413 31.0006H44.1101V33.1182H32.0412L32.0413 31.0006ZM32.0413 41.0289H46.1707V43.1466H32.0412L32.0413 41.0289ZM32.0413 45.057H44.1101V47.1746H32.0412L32.0413 45.057Z" fill="#143AA0"/>
</svg>
