<svg width="75" height="75" viewBox="0 0 75 75" fill="none" xmlns="http://www.w3.org/2000/svg">
<rect width="75" height="75" rx="37.5" fill="#E5E8F1"/>
<g clip-path="url(#clip0_1_4249)">
<path d="M48.959 26H46.6325C46.2545 22.634 43.424 20 39.959 20H26.459C22.7375 20 19.709 23.0285 19.709 26.75V47.5325C19.709 48.446 20.2085 49.2815 21.0155 49.712C21.3815 49.907 21.782 50.0045 22.181 50.0045C22.6595 50.0045 23.138 49.865 23.552 49.589L28.841 46.0625C29.4545 49.157 32.186 51.5 35.459 51.5H45.7325L51.866 55.589C52.28 55.865 52.757 56.0045 53.237 56.0045C53.636 56.0045 54.0365 55.907 54.4025 55.712C55.208 55.2815 55.709 54.446 55.709 53.5325V32.75C55.709 29.0285 52.6805 26 48.959 26ZM22.7195 48.341C22.415 48.5435 22.0445 48.5615 21.722 48.389C21.401 48.2165 21.209 47.897 21.209 47.5325V26.75C21.209 23.855 23.564 21.5 26.459 21.5H39.959C42.854 21.5 45.209 23.855 45.209 26.75V38.75C45.209 41.645 42.854 44 39.959 44H29.459C29.321 44 29.198 44.048 29.087 44.1125C29.0735 44.12 29.0555 44.117 29.042 44.126L22.7195 48.341ZM54.209 53.5325C54.209 53.897 54.017 54.218 53.696 54.389C53.375 54.56 53.0015 54.542 52.6985 54.341L46.376 50.126C46.253 50.0435 46.1075 50 45.9605 50H35.4605C32.8235 50 30.6545 48.038 30.287 45.5H39.9605C43.682 45.5 46.7105 42.4715 46.7105 38.75V27.5H48.9605C51.8555 27.5 54.2105 29.855 54.2105 32.75L54.209 53.5325ZM33.209 40.25C33.971 40.25 34.7345 40.145 35.4755 39.9335L39.4895 38.786C41.0915 38.3285 42.209 36.8465 42.209 35.18V29.2625C42.209 28.0745 41.666 26.984 40.718 26.2685C39.77 25.553 38.57 25.331 37.43 25.6565L34.712 26.4335C34.1135 26.6045 33.596 26.9495 33.209 27.4025C32.822 26.9495 32.3045 26.606 31.706 26.4335L28.9895 25.6565C27.8495 25.331 26.6495 25.5545 25.7015 26.2685C24.7535 26.984 24.2105 28.076 24.2105 29.2625V35.18C24.2105 36.845 25.3295 38.3285 26.93 38.786L30.944 39.9335C31.685 40.145 32.447 40.25 33.2105 40.25H33.209ZM33.959 29.42C33.959 28.706 34.4375 28.0715 35.1245 27.875L37.841 27.098C38.048 27.038 38.2565 27.0095 38.465 27.0095C38.9465 27.0095 39.4175 27.1655 39.8135 27.4655C40.382 27.8945 40.709 28.55 40.709 29.2625V35.18C40.709 36.179 40.0385 37.0685 39.077 37.343L35.063 38.4905C34.7 38.594 34.331 38.6675 33.959 38.7095V29.42ZM25.709 35.18V29.2625C25.709 28.55 26.0345 27.8945 26.6045 27.4655C27.002 27.1655 27.473 27.0095 27.953 27.0095C28.16 27.0095 28.37 27.0395 28.577 27.098L31.2935 27.875C31.9805 28.0715 32.459 28.706 32.459 29.42V38.708C32.087 38.666 31.718 38.594 31.355 38.489L27.341 37.3415C26.3795 37.067 25.709 36.179 25.709 35.18Z" fill="#143AA0"/>
</g>
<defs>
<clipPath id="clip0_1_4249">
<rect width="36" height="36" fill="white" transform="translate(19.709 20)"/>
</clipPath>
</defs>
</svg>
