<svg width="75" height="75" viewBox="0 0 75 75" fill="none" xmlns="http://www.w3.org/2000/svg">
<rect width="75" height="75" rx="37.5" fill="#E5E8F1"/>
<path d="M33.2904 35.6667C37.3344 35.6667 40.6237 32.376 40.6237 28.3333C40.6237 24.2907 37.3344 21 33.2904 21C29.2464 21 25.957 24.2907 25.957 28.3333C25.957 32.376 29.2464 35.6667 33.2904 35.6667ZM33.2904 22.3333C36.5984 22.3333 39.2904 25.0253 39.2904 28.3333C39.2904 31.6413 36.5984 34.3333 33.2904 34.3333C29.9824 34.3333 27.2904 31.6413 27.2904 28.3333C27.2904 25.0253 29.9824 22.3333 33.2904 22.3333ZM45.2904 35.6667C40.5117 35.6667 36.6237 39.5547 36.6237 44.3333C36.6237 49.112 40.5117 53 45.2904 53C50.069 53 53.957 49.112 53.957 44.3333C53.957 39.5547 50.069 35.6667 45.2904 35.6667ZM45.2904 51.6667C41.2464 51.6667 37.957 48.376 37.957 44.3333C37.957 40.2907 41.2464 37 45.2904 37C49.3344 37 52.6237 40.2907 52.6237 44.3333C52.6237 48.376 49.3344 51.6667 45.2904 51.6667ZM45.957 44.0573L48.429 46.5293L47.4864 47.472L44.625 44.6107V39.668H45.9584V44.0587L45.957 44.0573ZM35.6877 38.3333C35.421 38.76 35.1797 39.204 34.9704 39.6667H27.957C25.3837 39.6667 23.2904 41.76 23.2904 44.3333V53H21.957V44.3333C21.957 41.0253 24.649 38.3333 27.957 38.3333H35.6877Z" fill="#143AA0" stroke="#143AA0" stroke-width="1.1"/>
</svg>
