<svg width="75" height="75" viewBox="0 0 75 75" fill="none" xmlns="http://www.w3.org/2000/svg">
<rect width="75" height="75" rx="37.5" fill="#E5E8F1"/>
<g clip-path="url(#clip0_1_4257)">
<path d="M38.8843 21.171L38.8843 21.171L38.8804 21.1691C38.1648 20.8206 37.3277 20.8198 36.6167 21.1659L36.6167 21.1658L36.6127 21.1678L22.2896 28.2973L22.5125 29.2449H52.9781L53.2009 28.2973L38.8843 21.171ZM54.6953 28.2879L54.6992 28.2898C55.5181 28.6885 55.2339 29.9193 54.3239 29.9193H21.167C20.2576 29.9193 19.9733 28.6908 20.7886 28.2911L20.7886 28.2911L20.7913 28.2898L36.3149 20.5628C36.3155 20.5625 36.3161 20.5621 36.3167 20.5618C37.2185 20.1236 38.2718 20.1232 39.1804 20.5651C39.181 20.5654 39.1816 20.5657 39.1822 20.566L54.6953 28.2879ZM54.0346 54.4524H54.5346V53.9524V52.278V51.778H54.0346H21.3834H20.8834V52.278V53.9524V54.4524H21.3834H54.0346ZM42.8154 37.7855L42.8154 37.7855C44.9748 38.5311 46.4525 40.5704 46.4525 42.8914C46.4525 45.8743 44.0348 48.2921 41.0519 48.2921C39.0583 48.2921 37.2561 47.2027 36.314 45.4857C36.2244 45.3224 36.2842 45.1174 36.4474 45.0279C36.6107 44.9383 36.8157 44.998 36.9053 45.1613C37.7297 46.6637 39.3063 47.6176 41.0519 47.6176C43.6624 47.6176 45.7781 45.5019 45.7781 42.8914C45.7781 40.8599 44.4846 39.0753 42.5954 38.423C42.4192 38.3622 42.3259 38.1701 42.3866 37.9942C42.4474 37.8182 42.6394 37.7247 42.8154 37.7855ZM54.4532 55.1269H20.9648C20.5475 55.1269 20.209 54.7883 20.209 54.371V51.8594C20.209 51.4421 20.5475 51.1036 20.9648 51.1036H54.4532C54.8705 51.1036 55.209 51.4421 55.209 51.8594V54.371C55.209 54.7883 54.8705 55.1269 54.4532 55.1269Z" fill="#143AA0" stroke="#143AA0"/>
<path d="M38.563 37.4705C38.563 35.1366 36.6706 33.2443 34.3367 33.2443C32.0028 33.2443 30.1105 35.1366 30.1105 37.4705C30.1105 39.8044 32.0028 41.6967 34.3367 41.6967C36.6706 41.6967 38.563 39.8044 38.563 37.4705ZM40.2374 37.4705C40.2374 40.7292 37.5954 43.3711 34.3367 43.3711C31.0781 43.3711 28.4361 40.7292 28.4361 37.4705C28.4361 34.2118 31.0781 31.5698 34.3367 31.5698C37.5954 31.5698 40.2374 34.2118 40.2374 37.4705ZM22.7412 29.5814V51.44C22.7412 51.9024 23.116 52.2772 23.5784 52.2772C24.0408 52.2772 24.4156 51.9024 24.4156 51.44V29.5814C24.4156 29.119 24.0408 28.7441 23.5784 28.7441C23.116 28.7441 22.7412 29.119 22.7412 29.5814ZM51.0668 29.5814V51.44C51.0668 51.9024 51.4416 52.2772 51.904 52.2772C52.3664 52.2772 52.7412 51.9024 52.7412 51.44V29.5814C52.7412 29.119 52.3664 28.7441 51.904 28.7441C51.4416 28.7441 51.0668 29.119 51.0668 29.5814Z" fill="#143AA0"/>
</g>
<defs>
<clipPath id="clip0_1_4257">
<rect width="36" height="36.6279" fill="white" transform="translate(19.709 19)"/>
</clipPath>
</defs>
</svg>
