<svg width="401" height="401" viewBox="0 0 401 401" fill="none" xmlns="http://www.w3.org/2000/svg">
<path d="M200.333 377H217V360.333V220.333V203.666H200.333H180.333C178.492 203.666 177 202.174 177 200.333C177 198.492 178.492 197 180.333 197H200.333H217V180.333V150.333C217 120.878 240.878 97 270.333 97H282.333C284.174 97 285.666 98.4922 285.666 100.333C285.666 102.174 284.174 103.666 282.333 103.666H270.333C244.56 103.666 223.666 124.559 223.666 150.333V180.333V197H240.333H282.333C284.174 197 285.666 198.492 285.666 200.333C285.666 202.174 284.174 203.666 282.333 203.666H240.333H223.666V220.333V360.333V377H240.333H320.333C351.63 377 377 351.63 377 320.333V80.3333C377 49.0373 351.63 23.6666 320.333 23.6666H80.3333C49.0372 23.6666 23.6666 49.0372 23.6666 80.3333V320.333C23.6666 351.63 49.0373 377 80.3333 377H200.333ZM17 80.3333C17 45.3552 45.3552 17 80.3333 17H320.333C355.31 17 383.666 45.3554 383.666 80.3333V320.333C383.666 355.31 355.31 383.666 320.333 383.666H80.3333C45.3554 383.666 17 355.31 17 320.333V80.3333Z" fill="black" stroke="#143AA0" stroke-width="33.3333"/>
</svg>
