<svg width="400" height="334" viewBox="0 0 400 334" fill="none" xmlns="http://www.w3.org/2000/svg">
<path fill-rule="evenodd" clip-rule="evenodd" d="M400 39.4608C385.303 46.1539 369.478 50.6802 352.879 52.7026C369.83 42.3017 382.837 25.8096 388.965 6.16353C373.094 15.794 355.556 22.8 336.82 26.5559C321.888 10.2082 300.546 0 276.927 0C231.637 0 194.893 37.679 194.893 84.1459C194.893 90.7427 195.598 97.147 197.006 103.311C128.802 99.7954 68.3453 66.3296 27.8453 15.3605C20.7783 27.8319 16.7399 42.3017 16.7399 57.7104C16.7399 86.8906 31.2262 112.652 53.2488 127.748C39.8193 127.338 27.1409 123.51 16.0591 117.251V118.286C16.0591 159.071 44.3505 193.09 81.9158 200.794C75.0366 202.769 67.7819 203.756 60.2923 203.756C55.0097 203.756 49.8444 203.25 44.8435 202.263C55.2914 235.681 85.5783 260.022 121.5 260.672C93.4201 283.255 58.0148 296.714 19.5808 296.714C12.96 296.714 6.40957 296.328 0 295.558C36.3209 319.393 79.4741 333.333 125.797 333.333C276.762 333.333 359.289 205.128 359.289 93.9208C359.289 90.2612 359.218 86.6016 359.077 83.0143C375.113 71.1448 389.036 56.3381 400 39.4608Z" fill="#00AAEC"/>
</svg>
