<svg width="400" height="284" viewBox="0 0 400 284" fill="none" xmlns="http://www.w3.org/2000/svg">
<path fill-rule="evenodd" clip-rule="evenodd" d="M158.7 193.916L158.687 80.7312L266.763 137.519L158.7 193.916ZM396 61.1181C396 61.1181 392.087 33.3601 380.1 21.1365C364.887 5.08592 347.837 5.01023 340.025 4.07867C284.05 -5.91079e-05 200.087 0 200.087 0H199.913C199.913 0 115.95 -5.91079e-05 59.975 4.07867C52.15 5.01023 35.1125 5.08592 19.8875 21.1365C7.90004 33.3601 3.99996 61.1181 3.99996 61.1181C3.99996 61.1181 0 93.7227 0 126.315V156.88C0 189.485 3.99996 222.077 3.99996 222.077C3.99996 222.077 7.90004 249.835 19.8875 262.059C35.1125 278.109 55.0999 277.606 63.9999 279.28C95.9999 282.377 200 283.333 200 283.333C200 283.333 284.05 283.207 340.025 279.129C347.837 278.185 364.887 278.109 380.1 262.059C392.087 249.835 396 222.077 396 222.077C396 222.077 400 189.485 400 156.88V126.315C400 93.7227 396 61.1181 396 61.1181Z" fill="#CE1312"/>
</svg>
