<svg width="434" height="434" viewBox="0 0 434 434" fill="none" xmlns="http://www.w3.org/2000/svg">
<path d="M17 194.778C17 110.972 17 69.07 43.0349 43.0349C69.07 17 110.972 17 194.778 17H239.222C323.027 17 364.931 17 390.964 43.0349C417 69.07 417 110.972 417 194.778V239.222C417 323.027 417 364.931 390.964 390.964C364.931 417 323.027 417 239.222 417H194.778C110.972 417 69.07 417 43.0349 390.964C17 364.931 17 323.027 17 239.222V194.778Z" stroke="#3435CE" stroke-width="33.3333"/>
<path d="M333.664 117C333.664 126.205 326.202 133.667 316.997 133.667C307.793 133.667 300.331 126.205 300.331 117C300.331 107.795 307.793 100.333 316.997 100.333C326.202 100.333 333.664 107.795 333.664 117Z" fill="#222222" stroke="#3435CE" stroke-width="33.3333"/>
<path d="M216.997 294.778C259.952 294.778 294.774 259.955 294.774 217C294.774 174.044 259.952 139.222 216.997 139.222C174.041 139.222 139.219 174.044 139.219 217C139.219 259.955 174.041 294.778 216.997 294.778Z" stroke="#3435CE" stroke-width="33.3333"/>
</svg>
