<svg width="401" height="354" viewBox="0 0 401 354" fill="none" xmlns="http://www.w3.org/2000/svg">
<path d="M338.948 95.088V95.0911C339.066 98.5037 339.16 101.919 339.16 105.381C339.16 215.956 261.287 330.414 130.927 330.414C105.441 330.414 80.3307 325.35 56.7293 315.574L56.0558 315.296L56.775 315.176C85.1613 310.477 112.21 298.022 134.793 279.011C138.468 275.89 139.831 270.852 138.237 266.322C136.642 261.792 132.39 258.718 127.558 258.602L127.563 258.394L338.948 95.088ZM338.948 95.088C338.764 91.3454 340.426 87.7634 343.385 85.4515L338.948 95.088ZM338.948 95.088L338.293 54.7687L338.406 54.9438C333.852 57.879 331.957 63.5415 333.807 68.6269C335.655 73.7095 340.878 76.785 346.148 76.1151C349.204 75.7155 352.235 75.2456 355.242 74.6585L355.931 74.5239L355.426 75.0125C351.609 78.7117 347.603 82.1994 343.385 85.4515M49.5958 148.432L49.9087 148.495C56.5764 149.833 62.8697 150.255 66.3442 150.349L66.3529 150.35H66.3614C71.3765 150.903 76.0261 147.403 77.6944 142.561C79.3354 137.753 77.6477 132.414 73.5107 129.433C57.2214 117.693 39.7535 95.7782 39.7535 69.5921C39.7535 63.1514 40.5555 56.7815 42.089 50.6241L42.1839 50.2433L42.4462 50.5352C83.0703 95.7435 138.502 123.035 197.268 126.208C201.153 126.416 204.362 124.893 206.699 122.163C209.033 119.437 209.958 115.739 209.218 112.225L49.5958 148.432ZM49.5958 148.432L49.6642 148.743L49.5958 148.432ZM49.5958 148.432L49.6642 148.743L49.5958 148.432ZM49.6642 148.743C55.4899 175.277 72.7402 194.623 96.1999 199.703L49.6642 148.743ZM343.385 85.4515L343.258 85.2865L343.386 85.4507C343.386 85.451 343.385 85.4512 343.385 85.4515ZM397.621 43.8254C401.064 47.6382 401.551 53.2782 398.846 57.6469C388.81 73.817 376.542 88.0117 362.278 99.903L362.2 99.9677L362.203 100.069C362.25 101.832 362.273 103.595 362.273 105.381C362.273 227.37 275.724 353.527 130.928 353.527C86.6175 353.527 43.4112 339.893 6.00936 314.128C1.6186 311.124 -0.138713 305.484 1.75643 300.515C3.63074 295.563 8.53078 292.333 13.9547 293.141L13.9605 293.142C42.2861 296.559 72.7077 290.809 98.3475 276.293L98.7269 276.078L98.3214 275.918C73.2538 266.013 53.0857 244.158 44.6089 215.675C44.0399 213.758 43.9772 211.727 44.4268 209.778C44.8764 207.83 45.8229 206.032 47.1741 204.558C48.539 203.101 50.2265 202.015 52.0736 201.415L52.3993 201.309L52.1555 201.068C34.7644 183.912 24.4055 158.532 24.4055 129.452V128.369C24.4055 123.702 27.1784 119.702 31.1559 117.852L31.3708 117.752L31.2441 117.552C22.6017 103.884 16.6409 87.5924 16.6409 69.5923C16.6409 52.9906 20.7268 36.6246 28.4511 22.3027C30.3227 18.837 33.8345 16.572 37.7632 16.2706C41.6773 16.0861 45.4892 17.6847 47.8429 20.7999C82.0161 65.9483 131.125 94.9444 184.266 101.823L184.515 101.855L184.5 101.604C184.383 99.6555 184.336 97.6833 184.336 95.7101C184.336 43.4826 224.208 1 273.163 1C295.483 1 317.032 10.0127 333.3 25.976L333.385 26.0589L333.499 26.0287C347.167 22.4232 360.246 16.6969 372.405 8.8969C376.496 6.28548 381.72 6.51565 385.604 9.40615C389.464 12.3186 391.104 17.3105 389.717 21.9322C387.628 28.999 384.74 35.7383 381.194 42.0311L380.879 42.591L381.463 42.3227C382.334 41.9222 383.182 41.5218 384.029 41.1219C388.701 38.9483 394.201 40.0132 397.621 43.8254Z" fill="#143AA0"/>
<path d="M338.948 95.088V95.0911C339.066 98.5037 339.16 101.919 339.16 105.381C339.16 215.956 261.287 330.414 130.927 330.414C105.441 330.414 80.3307 325.35 56.7293 315.574L56.0558 315.296L56.775 315.176C85.1613 310.477 112.21 298.022 134.793 279.011C138.468 275.89 139.831 270.852 138.237 266.322C136.642 261.792 132.39 258.718 127.558 258.602L127.563 258.394L338.948 95.088ZM338.948 95.088C338.764 91.3454 340.426 87.7634 343.385 85.4515M338.948 95.088L338.293 54.7687L338.406 54.9438C333.852 57.879 331.957 63.5415 333.807 68.6269C335.655 73.7095 340.878 76.785 346.148 76.1151C349.204 75.7155 352.235 75.2456 355.242 74.6585L355.931 74.5239L355.426 75.0125C351.609 78.7117 347.603 82.1994 343.385 85.4515M343.385 85.4515L343.258 85.2865L343.386 85.4507C343.386 85.451 343.385 85.4512 343.385 85.4515ZM49.5958 148.432L49.9087 148.495C56.5764 149.833 62.8697 150.255 66.3442 150.349L66.3529 150.35H66.3614C71.3766 150.903 76.0261 147.403 77.6944 142.561C79.3354 137.753 77.6476 132.414 73.5107 129.433C57.2213 117.693 39.7535 95.7782 39.7535 69.5921C39.7535 63.1514 40.5556 56.7815 42.089 50.6241L42.1839 50.2433L42.4462 50.5352C83.0703 95.7435 138.502 123.035 197.268 126.208C201.153 126.416 204.362 124.893 206.699 122.163C209.033 119.437 209.958 115.739 209.218 112.225L49.5958 148.432ZM49.5958 148.432L49.6642 148.743M49.6642 148.743C55.4899 175.277 72.7403 194.623 96.1999 199.703L49.6642 148.743ZM397.621 43.8254C401.064 47.6382 401.551 53.2782 398.846 57.6469C388.81 73.817 376.542 88.0117 362.278 99.903L362.2 99.9677L362.203 100.069C362.25 101.832 362.273 103.595 362.273 105.381C362.273 227.37 275.724 353.527 130.928 353.527C86.6175 353.527 43.4112 339.893 6.00936 314.128C1.6186 311.124 -0.138713 305.484 1.75643 300.515C3.63074 295.563 8.53078 292.333 13.9547 293.141L13.9605 293.142C42.2861 296.559 72.7078 290.809 98.3475 276.293L98.7269 276.078L98.3214 275.918C73.2537 266.013 53.0857 244.158 44.6089 215.675C44.0399 213.758 43.9772 211.727 44.4268 209.778C44.8764 207.83 45.8229 206.032 47.1741 204.558C48.539 203.101 50.2265 202.015 52.0736 201.415L52.3993 201.309L52.1555 201.068C34.7644 183.912 24.4055 158.532 24.4055 129.452V128.369C24.4055 123.702 27.1784 119.702 31.1559 117.852L31.3708 117.752L31.2441 117.552C22.6017 103.884 16.6409 87.5924 16.6409 69.5923C16.6409 52.9906 20.7268 36.6246 28.4511 22.3027C30.3227 18.837 33.8345 16.572 37.7632 16.2706C41.6773 16.0861 45.4892 17.6847 47.8429 20.7999C82.0161 65.9483 131.125 94.9444 184.266 101.823L184.515 101.855L184.5 101.604C184.383 99.6555 184.336 97.6833 184.336 95.7101C184.336 43.4826 224.208 1 273.163 1C295.483 1 317.032 10.0127 333.3 25.976L333.385 26.0589L333.499 26.0287C347.167 22.4232 360.246 16.6969 372.405 8.8969C376.496 6.28548 381.72 6.51565 385.604 9.40615C389.464 12.3186 391.104 17.3105 389.717 21.9322C387.628 28.999 384.74 35.7383 381.194 42.0311L380.879 42.591L381.463 42.3227C382.334 41.9222 383.182 41.5218 384.029 41.1219C388.701 38.9483 394.201 40.0132 397.621 43.8254Z" stroke="#143AA0" stroke-width="0.416667"/>
</svg>
