<svg width="400" height="292" viewBox="0 0 400 292" fill="none" xmlns="http://www.w3.org/2000/svg">
<path d="M349.806 18.4753L349.803 18.475L349.794 18.4738L349.713 18.4639C349.662 18.4577 349.591 18.4491 349.498 18.4381L349.339 18.4193C348.994 18.3788 348.459 18.3174 347.732 18.2381C346.277 18.0794 344.054 17.849 341.048 17.5706C335.037 17.0137 325.895 16.2646 313.511 15.5134C288.744 14.011 251.01 12.5 199.418 12.5C149.516 12.5 112.067 14.0105 87.1551 15.5137C74.6991 16.2652 65.3771 17.015 59.1996 17.5731C56.1108 17.8522 53.8082 18.0834 52.293 18.243C51.5354 18.3228 50.9746 18.3847 50.6109 18.4258C50.429 18.4463 50.2964 18.4616 50.213 18.4713L50.125 18.4816L50.1108 18.4833L50.1087 18.4835L50.1086 18.4836L50.1074 18.4837L49.3695 18.5724L48.6228 18.5727C39.0412 18.5763 29.8533 22.3851 23.0793 29.1616C16.3054 35.9381 12.5 45.1275 12.5 54.7091V237.145V237.15C12.4982 241.896 13.4312 246.595 15.2455 250.98C17.0599 255.365 19.7202 259.349 23.0745 262.706C26.4289 266.063 30.4115 268.726 34.7951 270.544C39.1787 272.362 43.8773 273.298 48.6228 273.3L48.6182 285.8C50.2123 273.402 50.2108 273.402 50.2095 273.402L50.2197 273.403L50.2961 273.413C50.3701 273.422 50.4903 273.436 50.657 273.456C50.9904 273.496 51.5098 273.557 52.2177 273.636C53.6334 273.793 55.8027 274.022 58.7453 274.298C64.6304 274.851 73.6082 275.595 85.8344 276.341C110.287 277.834 147.733 279.336 199.418 279.336C251.076 279.336 288.811 277.834 313.563 276.341C325.939 275.594 335.069 274.85 341.071 274.296C344.072 274.019 346.291 273.79 347.742 273.632C348.468 273.554 349.002 273.493 349.345 273.452C349.517 273.432 349.642 273.417 349.719 273.408L349.799 273.398L349.809 273.397L349.811 273.397L349.813 273.397L349.813 273.396L350.588 273.299L351.373 273.3C356.119 273.304 360.82 272.371 365.205 270.556C369.591 268.741 373.576 266.079 376.931 262.722C380.287 259.365 382.948 255.379 384.761 250.993C386.575 246.607 387.505 241.906 387.5 237.159L387.5 237.145V54.6727C387.5 49.9297 386.565 45.2332 384.749 40.8516C382.934 36.47 380.272 32.4892 376.917 29.1366C373.562 25.7841 369.579 23.1255 365.196 21.3129C360.813 19.5003 356.116 18.5692 351.373 18.5727L350.585 18.5733L349.806 18.4753ZM349.806 18.4753L349.807 18.4755L349.806 18.4753ZM134.064 218.182V239.456L152.648 229.101L282.357 156.828L301.966 145.902L282.351 134.986L152.642 62.8046L134.064 52.466V73.7273V218.182Z" fill="#3435CE" stroke="#3435CE" stroke-width="25"/>
</svg>
