<svg width="400" height="400" viewBox="0 0 400 400" fill="none" xmlns="http://www.w3.org/2000/svg">
<path d="M200 376.667H216.667V360V220V203.333H200H180C178.159 203.333 176.667 201.841 176.667 200C176.667 198.159 178.159 196.667 180 196.667H200H216.667V180V150C216.667 120.545 240.545 96.6667 270 96.6667H282C283.841 96.6667 285.333 98.1589 285.333 100C285.333 101.841 283.841 103.333 282 103.333H270C244.227 103.333 223.333 124.226 223.333 150V180V196.667H240H282C283.841 196.667 285.333 198.159 285.333 200C285.333 201.841 283.841 203.333 282 203.333H240H223.333V220V360V376.667H240H320C351.297 376.667 376.667 351.297 376.667 320V80C376.667 48.704 351.297 23.3333 320 23.3333H80C48.7039 23.3333 23.3333 48.7039 23.3333 80V320C23.3333 351.297 48.704 376.667 80 376.667H200ZM16.6667 80C16.6667 45.0219 45.0219 16.6667 80 16.6667H320C354.977 16.6667 383.333 45.0221 383.333 80V320C383.333 354.977 354.977 383.333 320 383.333H80C45.0221 383.333 16.6667 354.977 16.6667 320V80Z" fill="black" stroke="#3435CE" stroke-width="33.3333"/>
</svg>
