<svg width="50" height="50" viewBox="0 0 50 50" fill="none" xmlns="http://www.w3.org/2000/svg">
<g clip-path="url(#clip0_1_4543)">
<path d="M0 50L4.3 37.1009C2.1181 33.431 0.862069 29.1483 0.862069 24.569C0.862069 11 11.8621 0 25.431 0C39 0 50 11 50 24.569C50 38.1379 39 49.1379 25.431 49.1379C21.3026 49.1379 17.4147 48.1147 14 46.3164L0 50Z" fill="#2CB742"/>
<path d="M41.1058 32.7457C39.9713 30.6017 35.7877 28.15 35.7877 28.15C34.8412 27.6103 33.6989 27.55 33.1593 28.512C33.1593 28.512 31.7998 30.1422 31.4541 30.3767C29.8748 31.4465 28.4118 31.4051 26.9351 29.9284L23.5032 26.4965L20.0713 23.0646C18.5946 21.5879 18.5532 20.125 19.623 18.5457C19.8575 18.2 21.4877 16.8405 21.4877 16.8405C22.4498 16.3 22.3894 15.1586 21.8498 14.212C21.8498 14.212 19.398 10.0284 17.2541 8.89394C16.342 8.41118 15.2222 8.58015 14.4929 9.30946L12.9774 10.825C8.1696 15.6327 10.5368 21.0603 15.3446 25.8681L19.7386 30.262L24.1325 34.656C28.9403 39.4638 34.3679 41.831 39.1756 37.0233L40.6911 35.5077C41.4205 34.7767 41.5886 33.6569 41.1058 32.7457Z" fill="white"/>
</g>
<defs>
<clipPath id="clip0_1_4543">
<rect width="50" height="50" fill="white"/>
</clipPath>
</defs>
</svg>
