<svg width="28" height="21" viewBox="0 0 28 21" fill="none" xmlns="http://www.w3.org/2000/svg">
<path d="M26.7278 9.85183C26.2985 9.85183 25.955 10.1295 25.955 10.4766V16.1594C25.955 17.705 24.3979 18.9592 22.4916 18.9592H5.53539C3.62337 18.9592 2.07201 17.7004 2.07201 16.1594V10.384C2.07201 10.0369 1.72853 9.75928 1.29919 9.75928C0.869843 9.75928 0.526367 10.0369 0.526367 10.384V16.1594C0.526367 18.3946 2.77613 20.2086 5.53539 20.2086H22.4916C25.2566 20.2086 27.5007 18.3899 27.5007 16.1594V10.4766C27.5007 10.1341 27.1572 9.85183 26.7278 9.85183Z" fill="white"/>
<path d="M13.4702 15.2483C13.619 15.3686 13.8194 15.4334 14.014 15.4334C14.2087 15.4334 14.409 15.3732 14.5579 15.2483L19.4696 11.2777C19.773 11.0324 19.773 10.6391 19.4696 10.3938C19.1662 10.1486 18.6796 10.1486 18.3762 10.3938L14.7868 13.3V0.62474C14.7868 0.277662 14.4434 0 14.014 0C13.5847 0 13.2412 0.277662 13.2412 0.62474V13.3L9.64615 10.3938C9.34274 10.1486 8.85615 10.1486 8.55275 10.3938C8.24934 10.6391 8.24934 11.0324 8.55275 11.2777L13.4702 15.2483Z" fill="white"/>
</svg>
